<svg viewBox="0 0 800 800" xmlns="http://www.w3.org/2000/svg"><path d="M399.99999999999994,149.86888102933986 L399.99999999999994,94.4235613780686 M-81.24200834333783,426.1790277212117 L-81.5095136286871,370.5790982590341 M399.99999999999994,149.86888102933986 L-81.24200834333783,426.1790277212117 M399.99999999999994,94.4235613780686 L-81.5095136286871,370.5790982590341 M881.2420083433376,426.1790277212117 L881.509513628687,370.5790982590341 M881.2420083433376,426.1790277212117 L399.99999999999994,149.86888102933986 M881.509513628687,370.5790982590341 L399.99999999999994,94.4235613780686 M400,705.5764386219314 L400,649.8218965919946 M-81.24200834333783,426.1790277212117 L400,705.5764386219314 M-81.5095136286871,370.5790982590341 L400,649.8218965919946 M400,705.5764386219314 L881.2420083433376,426.1790277212117 M346.3298838871012,213.7004889787214 L342.2962715279485,216.65803134573383 M342.2962715279485,216.65803134573383 L339.6099442874093,220.08458303054312 M339.6099442874093,220.08458303054312 L338.4272832214047,223.78116682686806 M338.4272832214047,223.78116682686806 L338.8173181316963,227.53300321075733 M338.8173181316963,227.53300321075733 L340.75774303633233,231.12204194510917 M340.75774303633233,231.12204194510917 L344.13606322895606,234.33957537159 M344.13606322895606,234.33957537159 L348.756117781324,236.99844810225366 M348.756117781324,236.99844810225366 L354.3493858652626,238.94392465776525 M354.3493858652626,238.94392465776525 L360.5906680288702,240.06277161157735 M360.5906680288702,240.06277161157735 L367.11693621743643,240.28984620111066 M367.11693621743643,240.28984620111066 L373.5485917765447,239.61193718872101 M373.5485917765447,239.61193718872101 L379.5114933258197,238.06849768502798 M379.5114933258197,238.06849768502798 L384.6588891954086,235.74939450187247 M384.6588891954086,235.74939450187247 L388.69154017432203,232.78957901708935 M388.69154017432203,232.78957901708935 L391.37517504884687,229.36127901509457 M391.37517504884687,229.36127901509457 L392.5540386776905,225.66386695736242 M392.5540386776905,225.66386695736242 L392.15996208605645,221.9123173718645 M392.15996208605645,221.9123173718645 L390.2162024708852,218.32460022864672 M390.2162024708852,218.32460022864672 L386.835993158451,215.10913498625573 M386.835993158451,215.10913498625573 L382.21593698764667,212.4525979885863 M382.21593698764667,212.4525979885863 L376.62455515753874,210.50918961774516 M376.62455515753874,210.50918961774516 L370.38660586607085,209.39167476477948 M370.38660586607085,209.39167476477948 L363.8643789691077,209.16487645994908 M363.8643789691077,209.16487645994908 L357.43652199511865,209.8419572160456 M357.43652199511865,209.8419572160456 L351.47631523435604,211.38364839490342 M351.47631523435604,211.38364839490342 L346.3298838871012,213.7004889787214 M415.34111080459127,235.74939450187247 L420.4885066741802,238.06849768502798 M420.4885066741802,238.06849768502798 L426.4514082234552,239.61193718872101 M426.4514082234552,239.61193718872101 L432.88306378256345,240.28984620111066 M432.88306378256345,240.28984620111066 L439.4093319711297,240.06277161157735 M439.4093319711297,240.06277161157735 L445.6506141347373,238.94392465776525 M445.6506141347373,238.94392465776525 L451.243882218676,236.99844810225366 M451.243882218676,236.99844810225366 L455.8639367710438,234.33957537159 M455.8639367710438,234.33957537159 L459.24225696366756,231.12204194510917 M459.24225696366756,231.12204194510917 L461.1826818683036,227.53300321075733 M461.1826818683036,227.53300321075733 L461.5727167785952,223.78116682686814 M461.5727167785952,223.78116682686814 L460.39005571259065,220.08458303054312 M460.39005571259065,220.08458303054312 L457.7037284720514,216.65803134573383 M457.7037284720514,216.65803134573383 L453.6701161128987,213.7004889787214 M453.6701161128987,213.7004889787214 L448.52368476564385,211.38364839490342 M448.52368476564385,211.38364839490342 L442.56347800488123,209.8419572160456 M442.56347800488123,209.8419572160456 L436.1356210308922,209.16487645994908 M436.1356210308922,209.16487645994908 L429.61339413392903,209.39167476477948 M429.61339413392903,209.39167476477948 L423.37544484246115,210.50918961774525 M423.37544484246115,210.50918961774525 L417.7840630123533,212.4525979885863 M417.7840630123533,212.4525979885863 L413.1640068415489,215.10913498625573 M413.1640068415489,215.10913498625573 L409.7837975291147,218.32460022864672 M409.7837975291147,218.32460022864672 L407.8400379139435,221.9123173718645 M407.8400379139435,221.9123173718645 L407.44596132230936,225.66386695736242 M407.44596132230936,225.66386695736242 L408.62482495115296,229.36127901509457 M408.62482495115296,229.36127901509457 L411.30845982567786,232.78957901708935 M411.30845982567786,232.78957901708935 L415.34111080459127,235.74939450187247 M30.635967788488927,395.0797135441292 L26.568837229920405,398.05884487439226 M26.568837229920405,398.05884487439226 L23.85092263655389,401.5104045959961 M23.85092263655389,401.5104045959961 L22.640432355757866,405.2339691470403 M22.640432355757866,405.2339691470403 L23.008024673507975,409.0131863280631 M23.008024673507975,409.0131863280631 L24.932673401424836,412.628430069709 M24.932673401424836,412.628430069709 L28.302830652390753,415.86945286039423 M28.302830652390753,415.86945286039423 L32.922802959103706,418.5477376453522 M32.922802959103706,418.5477376453522 L38.52407555148375,420.5074185103529 M38.52407555148375,420.5074185103529 L44.78099298612915,421.6344293413465 M44.78099298612915,421.6344293413465 L51.329590028442,421.8631672197048 M51.329590028442,421.8631672197048 L57.78899514487563,421.180308461665 M57.78899514487563,421.180308461665 L63.78344219223459,419.62559980296317 M63.78344219223459,419.62559980296317 L68.96435272713722,417.2895594537158 M68.96435272713722,417.2895594537158 L73.03051094169302,414.30814068202284 M73.03051094169302,414.30814068202284 L75.74572467831217,410.8548134662492 M75.74572467831217,410.8548134662492 L76.95239509125975,407.13041156874385 M76.95239509125975,407.13041156874385 L76.58074821831394,403.35147372218364 M76.58074821831394,403.35147372218364 L74.6527135434252,399.73757667774265 M74.6527135434252,399.73757667774265 L71.2806401799109,396.49864475669597 M71.2806401799109,396.49864475669597 L66.66065133128961,393.8227213249785 M66.66065133128961,393.8227213249785 L61.06126555738098,391.86513133020463 M61.06126555738098,391.86513133020463 L54.80771527634266,390.7394566018664 M54.80771527634266,390.7394566018664 L48.263168801838674,390.51100864850247 M48.263168801838674,390.51100864850247 L41.80759528504137,391.1930300652503 M41.80759528504137,391.1930300652503 L35.815873857678184,392.74597122204705 M35.815873857678184,392.74597122204705 L30.635967788488927,395.0797135441292 M68.8466302071472,435.0716572512919 L63.6953056427879,432.7341735694977 M63.6953056427879,432.7341735694977 L57.720573402480056,431.1787464257693 M57.720573402480056,431.1787464257693 L51.26940173341944,430.4956332365704 M51.26940173341944,430.4956332365704 L44.716423812481366,430.7244521857068 M44.716423812481366,430.7244521857068 L38.44207084532002,431.851923597697 M38.44207084532002,431.851923597697 L32.81074505034428,433.8126474062486 M32.81074505034428,433.8126474062486 L28.14952305173665,436.49285479677826 M28.14952305173665,436.49285479677826 L24.729317080927217,439.7369723194717 M24.729317080927217,439.7369723194717 L22.749054337696805,443.35666099323566 M22.749054337696805,443.35666099323566 L22.32409138040333,447.14164456295157 M22.32409138040333,447.14164456295157 L23.47948308723096,450.87201060910513 M23.47948308723096,450.87201060910513 L26.148428294054497,454.33086827988166 M26.148428294054497,454.33086827988166 L30.17602855488292,457.3170673655321 M30.17602855488292,457.3170673655321 L35.32830863444144,459.6568439846971 M35.32830863444144,459.6568439846971 L41.30574604629999,461.21404287743036 M41.30574604629999,461.21404287743036 L47.7607436955185,461.89799541995404 M47.7607436955185,461.89799541995404 L54.31780103873649,461.6688964608527 M54.31780103873649,461.6688964608527 L60.59552700974257,460.540075124024 M60.59552700974257,460.540075124024 L66.22877199702253,458.57725542113 M66.22877199702253,458.57725542113 L70.89001057689359,455.8946810033053 M70.89001057689359,455.8946810033053 L74.30832671941926,452.64846758685934 M74.30832671941926,452.64846758685934 L76.28523529760685,449.0274395916178 M76.28523529760685,449.0274395916178 L76.70612283035211,445.2421654045491 M76.70612283035211,445.2421654045491 L75.54689338397702,441.5126387169016 M75.54689338397702,441.5126387169016 L72.87521818275661,438.0555527873757 M72.87521818275661,438.0555527873757 L68.8466302071472,435.0716572512919 M255.38637478831248,509.6717431656672 L280.42730563553266,522.0072973178342 M280.42730563553266,522.0072973178342 L308.5827416979296,531.8611714145977 M308.5827416979296,531.8611714145977 L339.1207072065299,538.9750963785455 M339.1207072065299,538.9750963785455 L371.24599595786367,543.1624318331999 M371.24599595786367,543.1624318331999 L404.1211711291676,544.3132519553747 M404.1211711291676,544.3132519553747 L436.88885982442423,542.3973259596496 M436.88885982442423,542.3973259596496 L468.69455097605953,537.4649734702649 M468.69455097605953,537.4649734702649 L498.7093136428033,529.645665051595 M498.7093136428033,529.645665051595 L526.1518377522259,519.1445002089636 M526.1518377522259,519.1445002089636 L550.3090391078797,506.2366273608127 M550.3090391078797,506.2366273608127 L570.5548078162547,491.25979018057274 M570.5548078162547,491.25979018057274 L586.3662406798958,474.60522745297317 M586.3662406798958,474.60522745297317 L597.3370283478025,456.70717299805364 M597.3370283478025,456.70717299805364 L603.1876680257126,438.0313438947406 M603.1876680257126,438.0313438947406 L603.7721922525295,419.0626419144999 M603.7721922525295,419.0626419144999 L599.0814232042928,400.29246029195275 M599.0814232042928,400.29246029195275 L589.2425224302567,382.2059765119575 M589.2425224302567,382.2059765119575 L574.5152203314415,365.2696560750287 M574.5152203314415,365.2696560750287 L555.2844734618607,349.9193913580603 M555.2844734618607,349.9193913580603 L532.0501999984117,336.54949911257154 M532.0501999984117,336.54949911257154 L505.4141379121439,325.502831778549 M505.4141379121439,325.502831778549 L476.0642640705929,317.06224821141063 M476.0642640705929,317.06224821141063 L444.7571540583545,311.44361584063546 M444.7571540583545,311.44361584063546 L412.2987603617599,308.7905373192132 M412.2987603617599,308.7905373192132 L379.52406792655205,309.1707617771308 M379.52406792655205,309.1707617771308 L347.2759953190899,312.5745892380238 M347.2759953190899,312.5745892380238 L316.384221030511,318.91506403776646 M316.384221030511,318.91506403776646 L287.6442407356513,328.03013187636884 M287.6442407356513,328.03013187636884 L261.79720908675296,339.6865989461267 M261.79720908675296,339.6865989461267 L239.51112791323473,353.5858896067905 M239.51112791323473,353.5858896067905 L221.36365534269478,369.37143760409657 M221.36365534269478,369.37143760409657 L207.82710453730553,386.63755440301617 M207.82710453730553,386.63755440301617 L199.2559793617226,404.9396355596207 M199.2559793617226,404.9396355596207 L195.87739305790993,423.8053881881759 M195.87739305790993,423.8053881881759 L197.7846785849504,442.74690534307786 M197.7846785849504,442.74690534307786 L204.93433149039228,461.273217582347 M204.93433149039228,461.273217582347 L217.1465782902262,478.90303545380004 M217.1465782902262,478.90303545380004 L234.10944060894082,495.1773905895483 M234.10944060894082,495.1773905895483 L255.38637478831248,509.6717431656672 M769.3640322115109,395.0797135441293 L764.1841261423219,392.74597122204705 M764.1841261423219,392.74597122204705 L758.1924047149587,391.1930300652503 M758.1924047149587,391.1930300652503 L751.7368311981613,390.5110086485025 M751.7368311981613,390.5110086485025 L745.1922847236572,390.7394566018664 M745.1922847236572,390.7394566018664 L738.9387344426189,391.86513133020475 M738.9387344426189,391.86513133020475 L733.3393486687103,393.82272132497854 M733.3393486687103,393.82272132497854 L728.719359820089,396.49864475669597 M728.719359820089,396.49864475669597 L725.3472864565749,399.73757667774277 M725.3472864565749,399.73757667774277 L723.419251781686,403.35147372218364 M723.419251781686,403.35147372218364 L723.0476049087401,407.13041156874385 M723.0476049087401,407.13041156874385 L724.2542753216878,410.8548134662492 M724.2542753216878,410.8548134662492 L726.9694890583069,414.3081406820229 M726.9694890583069,414.3081406820229 L731.0356472728627,417.2895594537158 M731.0356472728627,417.2895594537158 L736.2165578077654,419.6255998029633 M736.2165578077654,419.6255998029633 L742.2110048551242,421.18030846166505 M742.2110048551242,421.18030846166505 L748.670409971558,421.8631672197049 M748.670409971558,421.8631672197049 L755.2190070138709,421.63442934134656 M755.2190070138709,421.63442934134656 L761.4759244485163,420.5074185103529 M761.4759244485163,420.5074185103529 L767.0771970408962,418.54773764535224 M767.0771970408962,418.54773764535224 L771.6971693476091,415.8694528603943 M771.6971693476091,415.8694528603943 L775.0673265985752,412.62843006970905 M775.0673265985752,412.62843006970905 L776.9919753264919,409.01318632806317 M776.9919753264919,409.01318632806317 L777.3595676442421,405.2339691470404 M777.3595676442421,405.2339691470404 L776.1490773634459,401.5104045959961 M776.1490773634459,401.5104045959961 L773.4311627700797,398.05884487439226 M773.4311627700797,398.05884487439226 L769.3640322115109,395.0797135441293 M731.1533697928528,435.0716572512919 L727.1247818172433,438.0555527873757 M727.1247818172433,438.0555527873757 L724.453106616023,441.51263871690173 M724.453106616023,441.51263871690173 L723.2938771696479,445.2421654045492 M723.2938771696479,445.2421654045492 L723.714764702393,449.0274395916179 M723.714764702393,449.0274395916179 L725.6916732805807,452.64846758685945 M725.6916732805807,452.64846758685945 L729.1099894231063,455.8946810033053 M729.1099894231063,455.8946810033053 L733.7712280029775,458.57725542113 M733.7712280029775,458.57725542113 L739.4044729902573,460.54007512402404 M739.4044729902573,460.54007512402404 L745.6821989612636,461.66889646085286 M745.6821989612636,461.66889646085286 L752.2392563044814,461.89799541995416 M752.2392563044814,461.89799541995416 L758.6942539536999,461.21404287743036 M758.6942539536999,461.21404287743036 L764.6716913655584,459.6568439846972 M764.6716913655584,459.6568439846972 L769.823971445117,457.3170673655321 M769.823971445117,457.3170673655321 L773.8515717059454,454.33086827988177 M773.8515717059454,454.33086827988177 L776.5205169127689,450.87201060910513 M776.5205169127689,450.87201060910513 L777.6759086195966,447.14164456295157 M777.6759086195966,447.14164456295157 L777.2509456623031,443.3566609932357 M777.2509456623031,443.3566609932357 L775.2706829190729,439.7369723194718 M775.2706829190729,439.7369723194718 L771.8504769482633,436.49285479677826 M771.8504769482633,436.49285479677826 L767.1892549496556,433.81264740624863 M767.1892549496556,433.81264740624863 L761.5579291546799,431.8519235976971 M761.5579291546799,431.8519235976971 L755.2835761875185,430.72445218570687 M755.2835761875185,430.72445218570687 L748.7305982665805,430.4956332365704 M748.7305982665805,430.4956332365704 L742.2794265975199,431.1787464257693 M742.2794265975199,431.1787464257693 L736.3046943572119,432.7341735694978 M736.3046943572119,432.7341735694978 L731.1533697928528,435.0716572512919 M384.5411649592608,618.069975143688 L379.356198362002,615.7153628890364 M379.356198362002,615.7153628890364 L373.34975771312276,614.1485348055178 M373.34975771312276,614.1485348055178 L366.87066056449936,613.4604146591389 M366.87066056449936,613.4604146591389 L360.2951510465455,613.6909054162966 M360.2951510465455,613.6909054162966 L354.0049942742881,614.8266461747028 M354.0049942742881,614.8266461747028 L348.365482684014,616.8017419117316 M348.365482684014,616.8017419117316 L343.70417767198063,619.5015958968347 M343.70417767198063,619.5015958968347 L340.2919975679628,622.7694950332177 M340.2919975679628,622.7694950332177 L338.32739634945693,626.4157150040569 M338.32739634945693,626.4157150040569 L337.92485007513756,630.2284544285849 M337.92485007513756,630.2284544285849 L339.1080867015192,633.9861726115632 M339.1080867015192,633.9861726115632 L341.808697893285,637.4703934722247 M341.808697893285,637.4703934722247 L345.86993645847815,640.47848589914 M345.86993645847815,640.47848589914 L351.0558986095563,642.8354270593986 M351.0558986095563,642.8354270593986 L357.0650755253728,644.4040464129685 M357.0650755253728,644.4040464129685 L363.54803204078286,645.0930151606276 M363.54803204078286,645.0930151606276 L370.1276306522928,644.8622306036052 M370.1276306522928,644.8622306036052 L376.42119503739076,643.7251357517155 M376.42119503739076,643.7251357517155 L382.0626265695588,641.74792102788 M382.0626265695588,641.74792102788 L386.72393323938576,639.0456739356882 M386.72393323938576,639.0456739356882 L390.1341963374366,635.7756558130966 M390.1341963374366,635.7756558130966 L392.09539182693715,632.1280710594406 M392.09539182693715,632.1280710594406 L392.4938494077851,628.3150485203118 M392.4938494077851,628.3150485203118 L391.30675223905547,624.5581789438511 M391.30675223905547,624.5581789438511 L388.6034022982533,621.0757493453996 M388.6034022982533,621.0757493453996 L384.5411649592608,618.069975143688 M454.1300635415218,640.47848589914 L458.191302106715,637.4703934722247 M458.191302106715,637.4703934722247 L460.89191329848074,633.9861726115632 M460.89191329848074,633.9861726115632 L462.0751499248624,630.2284544285849 M462.0751499248624,630.2284544285849 L461.67260365054307,626.4157150040569 M461.67260365054307,626.4157150040569 L459.7080024320371,622.7694950332177 M459.7080024320371,622.7694950332177 L456.29582232801926,619.5015958968347 M456.29582232801926,619.5015958968347 L451.6345173159859,616.8017419117316 M451.6345173159859,616.8017419117316 L445.9950057257119,614.8266461747028 M445.9950057257119,614.8266461747028 L439.7048489534544,613.6909054162966 M439.7048489534544,613.6909054162966 L433.1293394355006,613.4604146591389 M433.1293394355006,613.4604146591389 L426.6502422868772,614.1485348055178 M426.6502422868772,614.1485348055178 L420.643801637998,615.7153628890364 M420.643801637998,615.7153628890364 L415.4588350407391,618.069975143688 M415.4588350407391,618.069975143688 L411.3965977017467,621.0757493453996 M411.3965977017467,621.0757493453996 L408.6932477609444,624.5581789438511 M408.6932477609444,624.5581789438511 L407.50615059221485,628.3150485203118 M407.50615059221485,628.3150485203118 L407.90460817306285,632.1280710594406 M407.90460817306285,632.1280710594406 L409.86580366256334,635.7756558130966 M409.86580366256334,635.7756558130966 L413.2760667606142,639.0456739356882 M413.2760667606142,639.0456739356882 L417.9373734304412,641.74792102788 M417.9373734304412,641.74792102788 L423.5788049626092,643.7251357517155 M423.5788049626092,643.7251357517155 L429.8723693477072,644.8622306036052 M429.8723693477072,644.8622306036052 L436.45196795921714,645.0930151606276 M436.45196795921714,645.0930151606276 L442.9349244746271,644.4040464129685 M442.9349244746271,644.4040464129685 L448.94410139044356,642.8354270593986 M448.94410139044356,642.8354270593986 L454.1300635415218,640.47848589914 M400,649.8218965919946 L881.509513628687,370.5790982590341 M346.3001774000004,158.21930158226326 L351.44945855467836,155.9037612757678 M351.44945855467836,155.9037612757678 L357.4129648747006,154.36293540425496 M357.4129648747006,154.36293540425496 L363.84437967311703,153.68623469098873 M363.84437967311703,153.68623469098873 L370.3702162284602,153.91290569366657 M370.3702162284602,153.91290569366657 L376.61161764450304,155.0297933009317 M376.61161764450304,155.0297933009317 L382.20609372977617,156.97211092949127 M382.20609372977617,156.97211092949127 L386.8287066553576,159.62715707558996 M386.8287066553576,159.62715707558996 L390.2107866216481,162.8408180049853 M390.2107866216481,162.8408180049853 L392.1556218977382,166.42652222243143 M392.1556218977382,166.42652222243143 L392.54991633667987,170.1759672681258 M392.54991633667987,170.1759672681258 L391.370399693636,173.8713054620044 M391.370399693636,173.8713054620044 L388.6852785247996,177.29768281540345 M388.6852785247996,177.29768281540345 L384.6503941066955,180.25583859566018 M384.6503941066955,180.25583859566018 L379.5001473554877,182.57364148710545 M379.5001473554877,182.57364148710545 L373.53394326165636,184.11621567008862 M373.53394326165636,184.11621567008862 L367.0987256706621,184.79374463331646 M367.0987256706621,184.79374463331646 L360.56884335293665,184.56679734513898 M360.56884335293665,184.56679734513898 L354.3241053688617,183.44857765011935 M354.3241053688617,183.44857765011935 L348.72774094142295,181.50419185269942 M348.72774094142295,181.50419185269942 L344.10512963696755,178.84680999146184 M344.10512963696755,178.84680999146184 L340.72494088358525,175.63108089378693 M340.72494088358525,175.63108089378693 L338.78344401697774,172.0440550924011 M338.78344401697774,172.0440550924011 L338.39319573080513,168.29432325341656 M338.39319573080513,168.29432325341656 L339.5765140165608,164.5998133146135 M339.5765140165608,164.5998133146135 L342.26433053268255,161.1751842650348 M342.26433053268255,161.1751842650348 L346.3001774000004,158.21930158226326 M415.3496058933044,180.25583859566018 L411.31472147520026,177.29768281540345 M411.31472147520026,177.29768281540345 L408.6296003063639,173.8713054620044 M408.6296003063639,173.8713054620044 L407.45008366332,170.1759672681258 M407.45008366332,170.1759672681258 L407.8443781022618,166.42652222243143 M407.8443781022618,166.42652222243143 L409.7892133783518,162.8408180049853 M409.7892133783518,162.8408180049853 L413.17129334464227,159.62715707558996 M413.17129334464227,159.62715707558996 L417.7939062702237,156.97211092949127 M417.7939062702237,156.97211092949127 L423.38838235549684,155.02979330093177 M423.38838235549684,155.02979330093177 L429.6297837715396,153.91290569366657 M429.6297837715396,153.91290569366657 L436.15562032688285,153.68623469098873 M436.15562032688285,153.68623469098873 L442.5870351252992,154.36293540425496 M442.5870351252992,154.36293540425496 L448.5505414453215,155.9037612757678 M448.5505414453215,155.9037612757678 L453.69982259999944,158.21930158226326 M453.69982259999944,158.21930158226326 L457.7356694673174,161.1751842650348 M457.7356694673174,161.1751842650348 L460.4234859834391,164.5998133146135 M460.4234859834391,164.5998133146135 L461.6068042691947,168.29432325341656 M461.6068042691947,168.29432325341656 L461.21655598302215,172.0440550924011 M461.21655598302215,172.0440550924011 L459.27505911641464,175.63108089378693 M459.27505911641464,175.63108089378693 L455.89487036303234,178.84680999146184 M455.89487036303234,178.84680999146184 L451.27225905857694,181.50419185269942 M451.27225905857694,181.50419185269942 L445.6758946311382,183.44857765011935 M445.6758946311382,183.44857765011935 L439.43115664706323,184.56679734513898 M439.43115664706323,184.56679734513898 L432.9012743293378,184.79374463331646 M432.9012743293378,184.79374463331646 L426.4660567383435,184.11621567008862 M426.4660567383435,184.11621567008862 L420.49985264451226,182.57364148710545 M420.49985264451226,182.57364148710545 L415.3496058933044,180.25583859566018 M30.430779227617506,339.49710104474354 L35.61357228223119,337.1646590819947 M35.61357228223119,337.1646590819947 L41.6086282522582,335.6125832898018 M41.6086282522582,335.6125832898018 L48.067790348460846,334.9309419412141 M48.067790348460846,334.9309419412141 L54.61597123026485,335.1592625868772 M54.61597123026485,335.1592625868772 L60.87299092950991,336.28431002488105 M60.87299092950991,336.28431002488105 L66.47547980899168,338.2408092056054 M66.47547980899168,338.2408092056054 L71.09802530027349,340.9152416891367 M71.09802530027349,340.9152416891367 L74.47196024739532,344.15236918254357 M74.47196024739532,344.15236918254357 L76.40105308313593,347.76425317921735 M76.40105308313593,347.76425317921735 L76.77289287102093,351.5410863557279 M76.77289287102093,351.5410863557279 L75.56553853857474,355.2634142672743 M75.56553853857474,355.2634142672743 L72.84880341728558,358.71481872421003 M72.84880341728558,358.71481872421003 L68.78037453134169,361.6945777014518 M68.78037453134169,361.6945777014518 L63.59657589062488,364.02931768476236 M63.59657589062488,364.02931768476236 L57.598791263935254,365.5831609760432 M57.598791263935254,365.5831609760432 L51.13579330565477,366.26563966458826 M51.13579330565477,366.26563966458826 L44.583557349467924,366.03702909733335 M44.583557349467924,366.03702909733335 L38.323166764040025,364.91064555586325 M38.323166764040025,364.91064555586325 L32.718788976860765,362.9520555082448 M32.718788976860765,362.9520555082448 L28.096260055076982,360.2752616752368 M28.096260055076982,360.2752616752368 L24.7242433585879,357.03604331552435 M24.7242433585879,357.03604331552435 L22.798540233739402,353.42281262673293 M22.798540233739402,353.42281262673293 L22.430759514274143,349.6457001132644 M22.430759514274143,349.6457001132644 L23.64193795744319,345.9242095468444 M23.64193795744319,345.9242095468444 L26.361376930845267,342.47457258126104 M26.361376930845267,342.47457258126104 L30.430779227617506,339.49710104474354 M68.66252109946441,379.46678007626923 L72.69333796693331,382.4490158156053 M72.69333796693331,382.4490158156053 L75.36648613631894,385.90417898280873 M75.36648613631894,385.90417898280873 L76.5263467460291,389.6316316797463 M76.5263467460291,389.6316316797463 L76.10521154084472,393.4148011908921 M76.10521154084472,393.4148011908921 L74.12719045214237,397.03381613175793 M74.12719045214237,397.03381613175793 L70.70696130224843,400.2782251138169 M70.70696130224843,400.2782251138169 L66.04312020841144,402.95930857729377 M66.04312020841144,402.95930857729377 L60.40673446279288,404.9210374612939 M60.40673446279288,404.9210374612939 L54.12551218927092,406.0492315048736 M54.12551218927092,406.0492315048736 L47.56480652618427,406.27820315567146 M47.56480652618427,406.27820315567146 L41.10622093795814,405.59463068309634 M41.10622093795814,405.59463068309634 L35.125464867830715,404.03829715891067 M35.125464867830715,404.03829715891067 L29.970328524034983,401.69982090466897 M29.970328524034983,401.69982090466897 L25.94050048423526,398.7152816193126 M25.94050048423526,398.7152816193126 L23.27008535322875,395.2583467113193 M23.27008535322875,395.2583467113193 L22.11406675575978,391.53005465609374 M22.11406675575978,391.53005465609374 L22.53928191311155,387.7471757592775 M22.53928191311155,387.7471757592775 L24.520660898173958,384.1295001424888 M24.520660898173958,384.1295001424888 L27.94278197058037,380.8871870536375 M27.94278197058037,380.8871870536375 L32.60660645547671,378.20847061684043 M32.60660645547671,378.20847061684043 L38.24107086554835,376.24883762663825 M38.24107086554835,376.24883762663825 L44.51891637246274,375.12199350459866 M44.51891637246274,375.12199350459866 L51.07553807897716,374.8933018666407 M51.07553807897716,374.8933018666407 L57.53029343398026,375.57603498610905 M57.53029343398026,375.57603498610905 L63.50834133000882,377.1305967617501 M63.50834133000882,377.1305967617501 L68.66252109946441,379.46678007626923 M769.5692207723823,339.4971010447436 L773.6386230691546,342.47457258126104 M773.6386230691546,342.47457258126104 L776.3580620425566,345.9242095468444 M776.3580620425566,345.9242095468444 L777.5692404857257,349.6457001132645 M777.5692404857257,349.6457001132645 L777.2014597662605,353.422812626733 M777.2014597662605,353.422812626733 L775.275756641412,357.03604331552447 M775.275756641412,357.03604331552447 L771.903739944923,360.27526167523683 M771.903739944923,360.27526167523683 L767.2812110231391,362.9520555082448 M767.2812110231391,362.9520555082448 L761.67683323596,364.91064555586325 M761.67683323596,364.91064555586325 L755.416442650532,366.03702909733335 M755.416442650532,366.03702909733335 L748.8642066943453,366.2656396645884 M748.8642066943453,366.2656396645884 L742.4012087360647,365.5831609760433 M742.4012087360647,365.5831609760433 L736.403424109375,364.0293176847625 M736.403424109375,364.0293176847625 L731.2196254686583,361.6945777014519 M731.2196254686583,361.6945777014519 L727.1511965827142,358.71481872421003 M727.1511965827142,358.71481872421003 L724.4344614614251,355.2634142672743 M724.4344614614251,355.2634142672743 L723.2271071289788,351.54108635572794 M723.2271071289788,351.54108635572794 L723.598946916864,347.76425317921735 M723.598946916864,347.76425317921735 L725.5280397526046,344.15236918254357 M725.5280397526046,344.15236918254357 L728.9019746997265,340.9152416891367 M728.9019746997265,340.9152416891367 L733.5245201910082,338.2408092056054 M733.5245201910082,338.2408092056054 L739.12700907049,336.2843100248811 M739.12700907049,336.2843100248811 L745.3840287697351,335.15926258687733 M745.3840287697351,335.15926258687733 L751.9322096515391,334.9309419412142 M751.9322096515391,334.9309419412142 L758.3913717477417,335.6125832898019 M758.3913717477417,335.6125832898019 L764.3864277177688,337.1646590819947 M764.3864277177688,337.1646590819947 L769.5692207723823,339.4971010447436 M731.3374789005356,379.46678007626923 L736.491658669991,377.1305967617502 M736.491658669991,377.1305967617502 L742.4697065660198,375.57603498610905 M742.4697065660198,375.57603498610905 L748.9244619210226,374.89330186664074 M748.9244619210226,374.89330186664074 L755.4810836275371,375.12199350459866 M755.4810836275371,375.12199350459866 L761.7589291344516,376.2488376266383 M761.7589291344516,376.2488376266383 L767.3933935445232,378.20847061684054 M767.3933935445232,378.20847061684054 L772.0572180294196,380.8871870536375 M772.0572180294196,380.8871870536375 L775.4793391018261,384.1295001424889 M775.4793391018261,384.1295001424889 L777.4607180868884,387.7471757592775 M777.4607180868884,387.7471757592775 L777.8859332442403,391.53005465609385 M777.8859332442403,391.53005465609385 L776.729914646771,395.25834671131935 M776.729914646771,395.25834671131935 L774.0594995157646,398.7152816193126 M774.0594995157646,398.7152816193126 L770.0296714759647,401.6998209046691 M770.0296714759647,401.6998209046691 L764.8745351321691,404.0382971589108 M764.8745351321691,404.0382971589108 L758.8937790620419,405.59463068309634 M758.8937790620419,405.59463068309634 L752.4351934738156,406.2782031556715 M752.4351934738156,406.2782031556715 L745.8744878107291,406.04923150487366 M745.8744878107291,406.04923150487366 L739.5932655372069,404.9210374612939 M739.5932655372069,404.9210374612939 L733.9568797915886,402.9593085772939 M733.9568797915886,402.9593085772939 L729.2930386977514,400.2782251138169 M729.2930386977514,400.2782251138169 L725.8728095478575,397.033816131758 M725.8728095478575,397.033816131758 L723.8947884591553,393.4148011908922 M723.8947884591553,393.4148011908922 L723.4736532539707,389.6316316797463 M723.4736532539707,389.6316316797463 L724.633513863681,385.90417898280873 M724.633513863681,385.90417898280873 L727.3066620330667,382.4490158156054 M727.3066620330667,382.4490158156054 L731.3374789005356,379.46678007626923 M255.30585495244853,454.02542891900055 L234.0171006674327,439.53911764162547 M234.0171006674327,439.53911764162547 L217.0448293755572,423.2737968918462 M217.0448293755572,423.2737968918462 L204.82582530648068,405.65377250443333 M204.82582530648068,405.65377250443333 L197.6722370352128,387.13775919879816 M197.6722370352128,387.13775919879816 L195.76393396194612,368.20677967706524 M195.76393396194612,368.20677967706524 L199.14444032873575,349.3515304552134 M199.14444032873575,349.3515304552134 L207.72036697645848,331.0596464407124 M207.72036697645848,331.0596464407124 L221.26447061604492,313.80315641050277 M221.26447061604492,313.80315641050277 L239.42204742879179,298.02641548256076 M239.42204742879179,298.02641548256076 L261.72052001148916,284.13488409429164 M261.72052001148916,284.13488409429164 L287.5819088075883,272.48492755079803 M287.5819088075883,272.48492755079803 L316.33784173988846,263.37495288528044 M316.33784173988846,263.37495288528044 L347.2467545332583,257.03802200408575 M347.2467545332583,257.03802200408575 L379.5127127291819,253.63609743276288 M379.5127127291819,253.63609743276288 L412.3055807490316,253.2560855530577 M412.3055807490316,253.2560855530577 L444.78197585792475,255.9076808421183 M444.78197585792475,255.9076808421183 L476.1064531837416,261.52317257171336 M476.1064531837416,261.52317257171336 L505.4726158542306,269.9590394327096 M505.4726158542306,269.9590394327096 L532.1234703787263,280.9995361389106 M532.1234703787263,280.9995361389106 L555.3706588764071,294.3619636379628 M555.3706588764071,294.3619636379628 L574.6121089149178,309.70366281409594 M574.6121089149178,309.70366281409594 L589.3476230633787,326.63053875571626 M589.3476230633787,326.63053875571626 L599.1920281627549,344.7069436912788 M599.1920281627549,344.7069436912788 L603.8854458271514,363.4666731579069 M603.8854458271514,363.4666731579069 L603.3006395921384,382.4248203884103 M603.3006395921384,382.4248203884103 L597.4467879658,401.0902655148493 M597.4467879658,401.0902655148493 L586.4699353977724,418.9783757161743 M586.4699353977724,418.9783757161743 L570.649736595695,435.62369147318987 M570.649736595695,435.62369147318987 L550.3927243676253,450.5922184545569 M550.3927243676253,450.5922184545569 L526.2220914858158,463.4929331085273 M526.2220914858158,463.4929331085273 L498.76429621102943,473.9882771524562 M498.76429621102943,473.9882771524562 L468.7328208447596,481.8032529175354 M468.7328208447596,481.8032529175354 L436.909412703795,486.7328731049776 M436.909412703795,486.7328731049776 L404.12346735552507,488.6477379094288 M404.12346735552507,488.6477379094288 L371.2299752241138,487.4975551926314 M371.2299752241138,487.4975551926314 L339.08679021105553,483.3125392280824 M339.08679021105553,483.3125392280824 L308.5318186615451,476.2025557726102 M308.5318186615451,476.2025557726102 L280.36071200838455,466.35414312522505 M280.36071200838455,466.35414312522505 L255.30585495244853,454.02542891900055 M384.53253895484147,562.3636707942107 L388.5970426346092,565.3677852502954 M388.5970426346092,565.3677852502954 L391.3019007939099,568.8482921518034 M391.3019007939099,568.8482921518034 L392.4896601329499,572.6030878113793 M392.4896601329499,572.6030878113793 L392.09097983284585,576.4140057559582 M392.09097983284585,576.4140057559582 L390.12868929269536,580.0595775306067 M390.12868929269536,580.0595775306067 L386.71652211919417,583.3277912917622 M386.71652211919417,583.3277912917622 L382.05261282157613,586.0285474918458 M382.05261282157613,586.0285474918458 L376.40803137598317,588.0046714434486 M376.40803137598317,588.0046714434486 L370.1109530190104,589.1411390323026 M370.1109530190104,589.1411390323026 L363.52768094838495,589.371796283644 M363.52768094838495,589.371796283644 L357.04110533466303,588.6832075893385 M357.04110533466303,588.6832075893385 L351.02857440202416,587.1154535669614 M351.02857440202416,587.1154535669614 L345.8397184831643,584.759812719569 M345.8397184831643,584.759812719569 L341.7762146881371,581.7533800217516 M341.7762146881371,581.7533800217516 L339.0740983365368,578.2710818475641 M339.0740983365368,578.2710818475641 L337.89020385069017,574.515437576511 M337.89020385069017,574.515437576511 L338.2929774145614,570.7048027511676 M338.2929774145614,570.7048027511676 L340.25867748073625,567.0605957643324 M340.25867748073625,567.0605957643324 L343.6727637998314,563.7945010017704 M343.6727637998314,563.7945010017704 L348.33667143687865,561.0961379227626 M348.33667143687865,561.0961379227626 L353.97933079603206,559.1221329703512 M353.97933079603206,559.1221329703512 L360.27299773998936,557.9870194858754 M360.27299773998936,557.9870194858754 L366.85217614609246,557.7566560331356 M366.85217614609246,557.7566560331356 L373.33488808415154,558.4443961212012 M373.33488808415154,558.4443961212012 L379.3446796953475,560.010358863057 M379.3446796953475,560.010358863057 L384.53253895484147,562.3636707942107 M454.1602815168357,584.759812719569 L448.9714255979757,587.1154535669614 M448.9714255979757,587.1154535669614 L442.95889466533697,588.6832075893385 M442.95889466533697,588.6832075893385 L436.472319051615,589.371796283644 M436.472319051615,589.371796283644 L429.8890469809895,589.1411390323026 M429.8890469809895,589.1411390323026 L423.5919686240168,588.0046714434488 M423.5919686240168,588.0046714434488 L417.9473871784238,586.0285474918458 M417.9473871784238,586.0285474918458 L413.2834778808058,583.3277912917622 M413.2834778808058,583.3277912917622 L409.87131070730464,580.0595775306067 M409.87131070730464,580.0595775306067 L407.90902016715404,576.4140057559582 M407.90902016715404,576.4140057559582 L407.51033986705005,572.6030878113793 M407.51033986705005,572.6030878113793 L408.69809920609003,568.8482921518034 M408.69809920609003,568.8482921518034 L411.4029573653907,565.3677852502954 M411.4029573653907,565.3677852502954 L415.46746104515853,562.3636707942107 M415.46746104515853,562.3636707942107 L420.6553203046524,560.010358863057 M420.6553203046524,560.010358863057 L426.66511191584834,558.4443961212012 M426.66511191584834,558.4443961212012 L433.14782385390754,557.7566560331356 M433.14782385390754,557.7566560331356 L439.72700226001064,557.9870194858754 M439.72700226001064,557.9870194858754 L446.0206692039679,559.1221329703512 M446.0206692039679,559.1221329703512 L451.66332856312135,561.0961379227626 M451.66332856312135,561.0961379227626 L456.3272362001685,563.7945010017704 M456.3272362001685,563.7945010017704 L459.74132251926375,567.0605957643324 M459.74132251926375,567.0605957643324 L461.70702258543855,570.7048027511676 M461.70702258543855,570.7048027511676 L462.1097961493097,574.515437576511 M462.1097961493097,574.515437576511 L460.9259016634631,578.2710818475641 M460.9259016634631,578.2710818475641 L458.2237853118629,581.7533800217516 M458.2237853118629,581.7533800217516 L454.1602815168357,584.759812719569 M346.3298838871012,213.7004889787214 L346.3001774000004,158.21930158226326 M415.34111080459127,235.74939450187247 L415.3496058933044,180.25583859566018 M30.635967788488927,395.0797135441292 L30.430779227617506,339.49710104474354 M68.8466302071472,435.0716572512919 L68.66252109946441,379.46678007626923 M255.38637478831248,509.6717431656672 L255.30585495244853,454.02542891900055 M769.3640322115109,395.0797135441293 L769.5692207723823,339.4971010447436 M731.1533697928528,435.0716572512919 L731.3374789005356,379.46678007626923 M384.5411649592608,618.069975143688 L384.53253895484147,562.3636707942107 M454.1300635415218,640.47848589914 L454.1602815168357,584.759812719569" stroke="black"  stroke-width="4"  fill="red"/></svg>