<svg viewBox="0 0 800 800" xmlns="http://www.w3.org/2000/svg"><path d="M400,393.9997986875228 L265.5616151052543,316.4248581683002 M265.50201949293245,288.6183683932637 L265.5616151052543,316.4248581683002 M400,366.1586614626931 L265.50201949293245,288.6183683932637 M400,393.9997986875228 L400,366.1586614626931 M400,393.9997986875228 L369.8661019774805,411.38795273697417 M235.4279436927278,333.72690083307924 L369.8661019774805,411.38795273697417 M265.5616151052543,316.4248581683002 L254.86068270061944,321.8004423024237 M254.86068270061944,321.8004423024237 L244.80117925342265,327.5762295046995 M244.80117925342265,327.5762295046995 L235.4279436927278,333.72690083307924 M235.35494958367812,305.9126686121306 L244.73235609855945,299.76474865819205 M244.73235609855945,299.76474865819205 L254.79633235577555,293.99154611139073 M254.79633235577555,293.99154611139073 L265.50201949293245,288.6183683932637 M235.35494958367812,305.9126686121306 L235.4279436927278,333.72690083307924 M400,366.1586614626931 L369.8527031788933,383.5390728409654 M235.35494958367812,305.9126686121306 L369.8527031788933,383.5390728409654 M369.8527031788933,383.5390728409654 L369.8661019774805,411.38795273697417" stroke="black"  stroke-width="4"  fill="red"/>
<path d="M565.3923730030365,489.4361095900134 L430.13389802251953,411.38795273697417 M430.14729682110664,383.5390728409654 L430.13389802251953,411.38795273697417 M565.466096773398,461.55258179140503 L430.14729682110664,383.5390728409654 M565.466096773398,461.55258179140503 L565.3923730030365,489.4361095900134 M535.258704109684,506.930495290282 L545.9745111756295,501.4909881271021 M545.9745111756295,501.4909881271021 L556.0340137627679,495.65070366122336 M556.0340137627679,495.65070366122336 L565.3923730030365,489.4361095900134 M400,428.79543769698637 L535.258704109684,506.930495290282 M400,428.79543769698637 L430.13389802251953,411.38795273697417 M400,400.93881511833496 L430.14729682110664,383.5390728409654 M400,428.79543769698637 L400,400.93881511833496 M565.466096773398,461.55258179140503 L556.1035798120004,467.7644244510096 M556.1035798120004,467.7644244510096 L546.0396044163731,473.60212422403333 M546.0396044163731,473.60212422403333 L535.3190293878013,479.0392249342854 M400,400.93881511833496 L535.3190293878013,479.0392249342854 M535.3190293878013,479.0392249342854 L535.258704109684,506.930495290282" stroke="black"  stroke-width="4"  fill="red"/>
<path d="M534.4383848947457,316.4248581683002 L234.6076269969634,489.4361095900134 M234.5339032266019,461.55258179140503 L234.6076269969634,489.4361095900134 M534.4979805070675,288.6183683932637 L234.5339032266019,461.55258179140503 M534.4979805070675,288.6183683932637 L534.4383848947457,316.4248581683002 M264.74129589031594,506.930495290282 L254.02548882437068,501.4909881271021 M254.02548882437068,501.4909881271021 L243.96598623723207,495.6507036612233 M243.96598623723207,495.6507036612233 L234.6076269969634,489.4361095900134 M264.74129589031594,506.930495290282 L564.5720563072721,333.72690083307924 M564.5720563072721,333.72690083307924 L555.1988207465772,327.57622950469954 M555.1988207465772,327.57622950469954 L545.1393172993805,321.8004423024238 M545.1393172993805,321.8004423024238 L534.4383848947457,316.4248581683002 M264.6809706121988,479.0392249342854 L264.74129589031594,506.930495290282 M264.6809706121988,479.0392249342854 L253.9603955836269,473.6021242240332 M253.9603955836269,473.6021242240332 L243.89642018799964,467.7644244510096 M243.89642018799964,467.7644244510096 L234.5339032266019,461.55258179140503 M264.6809706121988,479.0392249342854 L564.6450504163217,305.9126686121306 M534.4979805070675,288.6183683932637 L545.2036676442244,293.99154611139073 M545.2036676442244,293.99154611139073 L555.2676439014406,299.76474865819205 M555.2676439014406,299.76474865819205 L564.6450504163217,305.9126686121306 M564.6450504163217,305.9126686121306 L564.5720563072721,333.72690083307924" stroke="black"  stroke-width="4"  fill="red"/>
<path d="M399.99999999999994,135.47548187299304 L399.99999999999994,107.75047378265026 M-82.14236836031193,411.38795273697417 L-82.35674913770646,383.5390728409654 M399.99999999999994,135.47548187299304 L-82.14236836031193,411.38795273697417 M399.99999999999994,107.75047378265026 L-82.35674913770646,383.5390728409654 M882.1423683603118,411.38795273697417 L882.3567491377064,383.5390728409654 M882.1423683603118,411.38795273697417 L399.99999999999994,135.47548187299304 M882.3567491377064,383.5390728409654 L399.99999999999994,107.75047378265026 M400,692.2495262173497 L400,664.2767719272449 M-82.14236836031193,411.38795273697417 L400,692.2495262173497 M-82.35674913770646,383.5390728409654 L400,664.2767719272449 M400,692.2495262173497 L882.1423683603118,411.38795273697417 M276.5806261279288,226.67526106491346 L274.0537617497203,228.5210515909189 M274.0537617497203,228.5210515909189 L272.3682841701733,230.6595485280629 M272.3682841701733,230.6595485280629 L271.62231015140554,232.96657085840445 M271.62231015140554,232.96657085840445 L271.85936734677466,235.30806895265653 M271.85936734677466,235.30806895265653 L273.0659379981169,237.54797832436049 M273.0659379981169,237.54797832436049 L275.1720393579603,239.5560258999524 M275.1720393579603,239.5560258999524 L278.0553932503695,241.21541562154144 M278.0553932503695,241.21541562154144 L281.5484174730616,242.429578025046 M281.5484174730616,242.429578025046 L285.4480351163823,243.12785143137233 M285.4480351163823,243.12785143137233 L289.5273893448273,243.2695609857339 M289.5273893448273,243.2695609857339 L293.54923953185784,242.84648134229997 M293.54923953185784,242.84648134229997 L297.27961605836276,241.8832283522833 M297.27961605836276,241.8832283522833 L300.5015919682914,240.4358872954711 M300.5015919682914,240.4358872954711 L303.0278604496101,238.58868047207315 M303.0278604496101,238.58868047207315 L304.7116608785255,236.44909422596422 M304.7116608785255,236.44909422596422 L305.455266422381,234.14155583790514 M305.455266422381,234.14155583790514 L305.21568631184607,231.80023644062078 M305.21568631184607,231.80023644062078 L304.0070321097821,229.56115049738935 M304.0070321097821,229.56115049738935 L301.89974804006295,227.55439152748554 M301.89974804006295,227.55439152748554 L299.0163889381647,225.8964571109812 M299.0163889381647,225.8964571109812 L295.52453819989773,224.6835833135264 M295.52453819989773,224.6835833135264 L291.62699818883897,223.98613990133103 M291.62699818883897,223.98613990133103 L287.5501656199874,223.84460247580083 M287.5501656199874,223.84460247580083 L283.53068760256883,224.26716606470393 M283.53068760256883,224.26716606470393 L279.8019960252025,225.22932974098987 M279.8019960252025,225.22932974098987 L276.5806261279288,226.67526106491346 M523.4193738720712,226.67526106491346 L520.1980039747975,225.22932974098987 M520.1980039747975,225.22932974098987 L516.4693123974312,224.26716606470393 M516.4693123974312,224.26716606470393 L512.4498343800126,223.8446024758009 M512.4498343800126,223.8446024758009 L508.3730018111611,223.98613990133103 M508.3730018111611,223.98613990133103 L504.47546180010227,224.6835833135264 M504.47546180010227,224.6835833135264 L500.98361106183535,225.8964571109812 M500.98361106183535,225.8964571109812 L498.10025195993705,227.55439152748554 M498.10025195993705,227.55439152748554 L495.9929678902178,229.56115049738935 M495.9929678902178,229.56115049738935 L494.7843136881539,231.80023644062078 M494.7843136881539,231.80023644062078 L494.544733577619,234.14155583790514 M494.544733577619,234.14155583790514 L495.28833912147445,236.44909422596422 M495.28833912147445,236.44909422596422 L496.97213955038995,238.58868047207315 M496.97213955038995,238.58868047207315 L499.49840803170855,240.4358872954711 M499.49840803170855,240.4358872954711 L502.7203839416372,241.8832283522833 M502.7203839416372,241.8832283522833 L506.4507604681421,242.84648134230005 M506.4507604681421,242.84648134230005 L510.4726106551727,243.2695609857339 M510.4726106551727,243.2695609857339 L514.5519648836178,243.12785143137233 M514.5519648836178,243.12785143137233 L518.4515825269384,242.429578025046 M518.4515825269384,242.429578025046 L521.9446067496306,241.21541562154152 M521.9446067496306,241.21541562154152 L524.8279606420397,239.5560258999525 M524.8279606420397,239.5560258999525 L526.9340620018831,237.54797832436049 M526.9340620018831,237.54797832436049 L528.1406326532253,235.30806895265653 M528.1406326532253,235.30806895265653 L528.3776898485944,232.96657085840445 M528.3776898485944,232.96657085840445 L527.6317158298266,230.6595485280629 M527.6317158298266,230.6595485280629 L525.9462382502797,228.5210515909189 M525.9462382502797,228.5210515909189 L523.4193738720712,226.67526106491346 M78.90492238755951,339.87264776325577 L76.35710081575098,341.73188943551304 M76.35710081575098,341.73188943551304 L74.65186495018696,343.88596778396885 M74.65186495018696,343.88596778396885 L73.88847453586374,346.20980063367466 M73.88847453586374,346.20980063367466 L74.11147637950228,348.5683584364371 M74.11147637950228,348.5683584364371 L75.308154226353,350.8245950346644 M75.308154226353,350.8245950346644 L77.40911902034526,352.84727778220764 M77.40911902034526,352.84727778220764 L80.2923867546773,354.5187622827968 M80.2923867546773,354.5187622827968 L83.7903810347745,355.74177475141516 M83.7903810347745,355.74177475141516 L87.6997418740034,356.44513474330836 M87.6997418740034,356.44513474330836 L91.79302835053318,356.5878805753631 M91.79302835053318,356.5878805753631 L95.83220567700528,356.16171696909055 M95.83220567700528,356.16171696909055 L99.58228970077732,355.1914426770527 M99.58228970077732,355.1914426770527 L102.82521223545854,353.7335488287422 M102.82521223545854,353.7335488287422 L105.37243106686077,351.87288197131903 M105.37243106686077,351.87288197131903 L107.0759845259509,349.7177023854046 M107.0759845259509,349.7177023854046 L107.83699250606986,347.3933478268838 M107.83699250606986,347.3933478268838 L107.61145977769786,345.0349640565014 M107.61145977769786,345.0349640565014 L106.41266637379942,342.77956652512347 M106.41266637379942,342.77956652512347 L104.31050201130665,340.7581864941639 M104.31050201130665,340.7581864941639 L101.42721972342872,339.0881732349997 M101.42721972342872,339.0881732349997 L97.93039923891536,337.8664634833313 M97.93039923891536,337.8664634833313 L94.0231374221712,337.16393595301946 M94.0231374221712,337.16393595301946 L89.93237832226305,337.0213707561088 M89.93237832226305,337.0213707561088 L85.89559375156489,337.44701265678725 M85.89559375156489,337.44701265678725 L82.14721392102302,338.4161857065475 M82.14721392102302,338.4161857065475 L78.90492238755951,339.87264776325577 M77.43164828871437,483.2313899488827 L80.65897595240403,484.7013853405474 M80.65897595240403,484.7013853405474 L84.40528071907994,485.679716124455 M84.40528071907994,485.679716124455 L88.45270922510576,486.1094183803868 M88.45270922510576,486.1094183803868 L92.56580229866188,485.96549058705097 M92.56580229866188,485.96549058705097 L96.50535570850212,485.2562869639056 M96.50535570850212,485.2562869639056 L100.04218725433793,484.02311961761586 M100.04218725433793,484.02311961761586 L102.97067136836358,482.33775714738834 M102.97067136836358,482.33775714738834 L105.12060114168571,480.2982815066351 M105.12060114168571,480.2982815066351 L106.36715167029149,478.0233176066881 M106.36715167029149,478.0233176066881 L106.63801786626891,475.64517785018137 M106.63801786626891,475.64517785018137 L105.91772102690396,473.3020560885912 M105.91772102690396,473.3020560885912 L104.24829985085967,471.13009915991574 M104.24829985085967,471.13009915991574 L101.72694173866137,469.2554303426727 M101.72694173866137,469.2554303426727 L98.50021021665884,467.78687792932675 M98.50021021665884,467.78687792932675 L94.75560177644383,466.80966212813655 M94.75560177644383,466.80966212813655 L90.71057545973531,466.38048808723346 M90.71057545973531,466.38048808723346 L86.60004582997169,466.52423966966086 M86.60004582997169,466.52423966966086 L82.66261403011941,467.23259376636037 M82.66261403011941,467.23259376636037 L79.12699206401317,468.4644421414171 M79.12699206401317,468.4644421414171 L76.19852268487381,470.1483150132206 M76.19852268487381,470.1483150132206 L74.047409426032,472.18647168311264 M74.047409426032,472.18647168311264 L72.798754028482,474.46059272504925 M72.798754028482,474.46059272504925 L72.52532794107572,476.8385495996784 M72.52532794107572,476.8385495996784 L73.24321214113957,479.1821995795574 M73.24321214113957,479.1821995795574 L74.9109149320692,481.35527148607014 M74.9109149320692,481.35527148607014 L77.43164828871437,483.2313899488827 M721.0950776124405,339.87264776325577 L717.852786078977,338.41618570654754 M717.852786078977,338.41618570654754 L714.104406248435,337.44701265678736 M714.104406248435,337.44701265678736 L710.0676216777367,337.0213707561088 M710.0676216777367,337.0213707561088 L705.9768625778286,337.1639359530195 M705.9768625778286,337.1639359530195 L702.0696007610848,337.8664634833313 M702.0696007610848,337.8664634833313 L698.5727802765714,339.0881732349997 M698.5727802765714,339.0881732349997 L695.6894979886933,340.758186494164 M695.6894979886933,340.758186494164 L693.5873336262005,342.77956652512347 M693.5873336262005,342.77956652512347 L692.388540222302,345.0349640565014 M692.388540222302,345.0349640565014 L692.1630074939301,347.3933478268839 M692.1630074939301,347.3933478268839 L692.9240154740489,349.71770238540466 M692.9240154740489,349.71770238540466 L694.6275689331392,351.87288197131903 M694.6275689331392,351.87288197131903 L697.1747877645414,353.7335488287422 M697.1747877645414,353.7335488287422 L700.4177102992228,355.19144267705275 M700.4177102992228,355.19144267705275 L704.1677943229947,356.16171696909055 M704.1677943229947,356.16171696909055 L708.2069716494668,356.58788057536316 M708.2069716494668,356.58788057536316 L712.3002581259966,356.4451347433085 M712.3002581259966,356.4451347433085 L716.2096189652254,355.7417747514152 M716.2096189652254,355.7417747514152 L719.7076132453226,354.5187622827968 M719.7076132453226,354.5187622827968 L722.5908809796547,352.84727778220764 M722.5908809796547,352.84727778220764 L724.6918457736472,350.8245950346644 M724.6918457736472,350.8245950346644 L725.8885236204978,348.5683584364372 M725.8885236204978,348.5683584364372 L726.1115254641363,346.2098006336748 M726.1115254641363,346.2098006336748 L725.348135049813,343.88596778396897 M725.348135049813,343.88596778396897 L723.642899184249,341.73188943551315 M723.642899184249,341.73188943551315 L721.0950776124405,339.87264776325577 M722.5683517112857,483.2313899488827 L725.0890850679309,481.35527148607014 M725.0890850679309,481.35527148607014 L726.7567878588604,479.1821995795575 M726.7567878588604,479.1821995795575 L727.4746720589242,476.83854959967846 M727.4746720589242,476.83854959967846 L727.2012459715181,474.46059272504937 M727.2012459715181,474.46059272504937 L725.9525905739679,472.18647168311276 M725.9525905739679,472.18647168311276 L723.8014773151262,470.1483150132207 M723.8014773151262,470.1483150132207 L720.8730079359868,468.4644421414172 M720.8730079359868,468.4644421414172 L717.3373859698806,467.2325937663605 M717.3373859698806,467.2325937663605 L713.3999541700284,466.5242396696609 M713.3999541700284,466.5242396696609 L709.2894245402647,466.3804880872335 M709.2894245402647,466.3804880872335 L705.2443982235561,466.80966212813667 M705.2443982235561,466.80966212813667 L701.4997897833412,467.78687792932686 M701.4997897833412,467.78687792932686 L698.2730582613385,469.2554303426728 M698.2730582613385,469.2554303426728 L695.7517001491403,471.13009915991574 M695.7517001491403,471.13009915991574 L694.082278973096,473.3020560885913 M694.082278973096,473.3020560885913 L693.3619821337311,475.64517785018137 M693.3619821337311,475.64517785018137 L693.6328483297086,478.0233176066881 M693.6328483297086,478.0233176066881 L694.8793988583143,480.2982815066352 M694.8793988583143,480.2982815066352 L697.0293286316364,482.33775714738834 M697.0293286316364,482.33775714738834 L699.9578127456621,484.02311961761586 M699.9578127456621,484.02311961761586 L703.4946442914979,485.2562869639056 M703.4946442914979,485.2562869639056 L707.4341977013382,485.96549058705097 M707.4341977013382,485.96549058705097 L711.5472907748942,486.1094183803868 M711.5472907748942,486.1094183803868 L715.5947192809201,485.67971612445507 M715.5947192809201,485.67971612445507 L719.341024047596,484.7013853405474 M719.341024047596,484.7013853405474 L722.5683517112857,483.2313899488827 M248.91081771438692,498.6193328012134 L268.99583614602267,508.896379610932 M268.99583614602267,508.896379610932 L291.1660470972889,517.6366622288895 M291.1660470972889,517.6366622288895 L315.0699956260101,524.6996751902855 M315.0699956260101,524.6996751902855 L340.3277947788321,529.9717071919799 M340.3277947788321,529.9717071919799 L366.5372871191678,533.3677684853703 M366.5372871191678,533.3677684853703 L393.28064623219063,534.8330755829518 M393.28064623219063,534.8330755829518 L420.13122231982265,534.343974763183 M420.13122231982265,534.343974763183 L446.66059349085185,531.908376331709 M446.66059349085185,531.908376331709 L472.4456467286097,527.5655696500714 M472.4456467286097,527.5655696500714 L497.07555255580365,521.3855904788672 M497.07555255580365,521.3855904788672 L520.1584726186984,513.4679966034769 M520.1584726186984,513.4679966034769 L541.3280170673954,503.94018458714896 M541.3280170673954,503.94018458714896 L560.2491020187827,492.9551837386995 M560.2491020187827,492.9551837386995 L576.6233568767823,480.6891010882817 M576.6233568767823,480.6891010882817 L590.1938330234641,467.33815861558423 M590.1938330234641,467.33815861558423 L600.7489139146617,453.11539641341653 M600.7489139146617,453.11539641341653 L608.1255612560749,438.24719622774404 M608.1255612560749,438.24719622774404 L612.211633427766,422.9695450846198 M612.211633427766,422.9695450846198 L612.9474252185582,407.5242410703391 M612.9474252185582,407.5242410703391 L610.3262367576758,392.15502629269184 M610.3262367576758,392.15502629269184 L604.3942527271963,377.1037293180676 M604.3942527271963,377.1037293180676 L595.2494647114031,362.6064806087888 M595.2494647114031,362.6064806087888 L583.0398805895366,348.89008385724185 M583.0398805895366,348.89008385724185 L567.9609087170584,336.1685448285176 M567.9609087170584,336.1685448285176 L550.2521231039743,324.6398490165806 M550.2521231039743,324.6398490165806 L530.1934008461556,314.4829893189444 M530.1934008461556,314.4829893189444 L508.1004296466456,305.8553423782856 M508.1004296466456,305.8553423782856 L484.3198113040354,298.89033630302856 M484.3198113040354,298.89033630302856 L459.2236835661916,293.6955241782435 M459.2236835661916,293.6955241782435 L433.20404543414907,290.3510434289159 M433.20404543414907,290.3510434289159 L406.6667939594382,288.9084364396817 M406.6667939594382,288.9084364396817 L380.0256281193478,289.3899304659253 M380.0256281193478,289.3899304659253 L353.6958114621863,291.7880934278147 M353.6958114621863,291.7880934278147 L328.08791802119885,296.06598808044106 M328.08791802119885,296.06598808044106 L303.60164562433226,302.15765752506826 M303.60164562433226,302.15765752506826 L280.6198074823665,309.96909293120143 M280.6198074823665,309.96909293120143 L259.5024424641877,319.3795683468018 M259.5024424641877,319.3795683468018 L240.58135590655252,330.2434270894735 M240.58135590655252,330.2434270894735 L224.1549188029033,342.39217395450413 M224.1549188029033,342.39217395450413 L210.48335901395006,355.63695959470977 M210.48335901395006,355.63695959470977 L199.78464449071092,369.7714139111441 M199.78464449071092,369.7714139111441 L192.23083872034164,384.5747037587904 M192.23083872034164,384.5747037587904 L187.9452146337472,399.8149204775745 M187.9452146337472,399.8149204775745 L187.00001578257843,415.25261803250095 M187.00001578257843,415.25261803250095 L189.41509959205263,430.64453224059986 M189.41509959205263,430.64453224059986 L195.15723146196058,445.74740829211106 M195.15723146196058,445.74740829211106 L204.14034866473636,460.3218749721488 M204.14034866473636,460.3218749721488 L216.22660160777627,474.1362768688933 M216.22660160777627,474.1362768688933 L231.22833138668992,486.97045036563895 M231.22833138668992,486.97045036563895 L248.91081771438692,498.6193328012134 M275.1073078802354,598.3056513757945 L278.3557656096555,599.7864487241072 M278.3557656096555,599.7864487241072 L282.12199046495016,600.771966616036 M282.12199046495016,600.771966616036 L286.1869754732616,601.2048256633391 M286.1869754732616,601.2048256633391 L290.31423356264406,601.0598371463852 M290.31423356264406,601.0598371463852 L294.2637527798175,600.3454267916775 M294.2637527798175,600.3454267916775 L297.80575386690623,599.1032003922692 M297.80575386690623,599.1032003922692 L300.73431657013674,597.4054575468283 M300.73431657013674,597.4054575468283 L302.87923021311644,595.3510011718531 M302.87923021311644,595.3510011718531 L304.1159570799875,593.0593245835869 M304.1159570799875,593.0593245835869 L304.372781784908,590.6637223406917 M304.372781784908,590.6637223406917 L303.6350263620136,588.3033932210631 M303.6350263620136,588.3033932210631 L301.9457511485668,586.1154870841426 M301.9457511485668,586.1154870841426 L299.4032921183146,584.2270496550793 M299.4032921183146,584.2270496550793 L296.15545562349615,582.7477179360035 M296.15545562349615,582.7477179360035 L292.39094662793667,581.7633273322865 M292.39094662793667,581.7633273322865 L288.32838480287177,581.3310023296517 M288.32838480287177,581.3310023296517 L284.20369630724406,581.4758059654419 M284.20369630724406,581.4758059654419 L280.25632044920576,582.1893641434199 M280.25632044920576,582.1893641434199 L276.7155294556918,583.4302570147836 M276.7155294556918,583.4302570147836 L273.78697214330765,585.1264938218649 M273.78697214330765,585.1264938218649 L271.6408579535273,587.1796166691724 M271.6408579535273,587.1796166691724 L270.4019938524815,589.4704343717328 M270.4019938524815,589.4704343717328 L270.14260085363463,591.86585843988 M270.14260085363463,591.86585843988 L270.87792927015676,594.2267216074722 M270.87792927015676,594.2267216074722 L272.5654805534379,596.4157550276693 M272.5654805534379,596.4157550276693 L275.1073078802354,598.3056513757945 M524.8926921197647,598.3056513757945 L527.434519446562,596.4157550276693 M527.434519446562,596.4157550276693 L529.1220707298432,594.2267216074722 M529.1220707298432,594.2267216074722 L529.8573991463654,591.86585843988 M529.8573991463654,591.86585843988 L529.5980061475184,589.4704343717328 M529.5980061475184,589.4704343717328 L528.3591420464727,587.1796166691724 M528.3591420464727,587.1796166691724 L526.2130278566924,585.1264938218649 M526.2130278566924,585.1264938218649 L523.2844705443081,583.4302570147836 M523.2844705443081,583.4302570147836 L519.7436795507942,582.1893641434199 M519.7436795507942,582.1893641434199 L515.796303692756,581.4758059654419 M515.796303692756,581.4758059654419 L511.67161519712823,581.3310023296517 M511.67161519712823,581.3310023296517 L507.60905337206333,581.7633273322865 M507.60905337206333,581.7633273322865 L503.8445443765039,582.7477179360035 M503.8445443765039,582.7477179360035 L500.5967078816854,584.2270496550793 M500.5967078816854,584.2270496550793 L498.0542488514333,586.1154870841426 M498.0542488514333,586.1154870841426 L496.36497363798645,588.3033932210633 M496.36497363798645,588.3033932210633 L495.6272182150919,590.6637223406917 M495.6272182150919,590.6637223406917 L495.8840429200125,593.0593245835869 M495.8840429200125,593.0593245835869 L497.1207697868836,595.3510011718531 M497.1207697868836,595.3510011718531 L499.2656834298632,597.4054575468283 M499.2656834298632,597.4054575468283 L502.19424613309377,599.1032003922692 M502.19424613309377,599.1032003922692 L505.7362472201825,600.3454267916775 M505.7362472201825,600.3454267916775 L509.68576643735594,601.0598371463855 M509.68576643735594,601.0598371463855 L513.8130245267384,601.2048256633391 M513.8130245267384,601.2048256633391 L517.8780095350498,600.7719666160363 M517.8780095350498,600.7719666160363 L521.6442343903443,599.7864487241072 M521.6442343903443,599.7864487241072 L524.8926921197647,598.3056513757945 M400,664.2767719272449 L882.3567491377064,383.5390728409654 M276.52607251161066,198.90906945864396 L279.74886878194724,197.46378923895338 M279.74886878194724,197.46378923895338 L283.47921002429774,196.5020588587573 M283.47921002429774,196.5020588587573 L287.50046526185594,196.07968557338097 M287.50046526185594,196.07968557338097 L291.5790994833177,196.22115925629225 M291.5790994833177,196.22115925629225 L295.47836109429227,196.91828857704485 M295.47836109429227,196.91828857704485 L298.9717534557363,198.13061619348989 M298.9717534557363,198.13061619348989 L301.85638471277935,199.78780407695223 M301.85638471277935,199.78780407695223 L303.96459753050993,201.79365954981594 M303.96459753050993,201.79365954981594 L305.1737830146612,204.03173753105608 M305.1737830146612,204.03173753105608 L305.41346589706,206.37200309644857 M305.41346589706,206.37200309644857 L304.66952846374835,208.67850300975087 M304.66952846374835,208.67850300975087 L302.9849805833247,210.81712650060828 M302.9849805833247,210.81712650060828 L300.4575924069515,212.6635022360094 M300.4575924069515,212.6635022360094 L297.2341895832199,214.1101921785236 M297.2341895832199,214.1101921785236 L293.5021618997901,215.07301186355286 M293.5021618997901,215.07301186355286 L289.4785323937906,215.4959011992449 M289.4785323937906,215.4959011992449 L285.3973742853159,215.3542553874583 M285.3973742853159,215.3542553874583 L281.4960332033462,214.656296080804 M281.4960332033462,214.656296080804 L278.0014663216564,213.44267986883466 M278.0014663216564,213.44267986883466 L275.116840281015,211.78403669217468 M275.116840281015,211.78403669217468 L273.0098112212224,209.77689262414833 M273.0098112212224,209.77689262414833 L271.80271113437965,207.53799121971173 M271.80271113437965,207.53799121971173 L271.5655533962319,205.19754696026092 M271.5655533962319,205.19754696026092 L272.3118613983826,202.89156310046093 M272.3118613983826,202.89156310046093 L273.99808791103044,200.75402890967092 M273.99808791103044,200.75402890967092 L276.52607251161066,198.90906945864396 M523.4739274883893,198.90906945864404 L526.0019120889694,200.75402890967092 M526.0019120889694,200.75402890967092 L527.6881386016173,202.89156310046093 M527.6881386016173,202.89156310046093 L528.434446603768,205.19754696026092 M528.434446603768,205.19754696026092 L528.1972888656203,207.53799121971173 M528.1972888656203,207.53799121971173 L526.9901887787776,209.77689262414833 M526.9901887787776,209.77689262414833 L524.8831597189849,211.78403669217477 M524.8831597189849,211.78403669217477 L521.9985336783436,213.44267986883474 M521.9985336783436,213.44267986883474 L518.5039667966537,214.656296080804 M518.5039667966537,214.656296080804 L514.6026257146841,215.3542553874583 M514.6026257146841,215.3542553874583 L510.5214676062094,215.4959011992449 M510.5214676062094,215.4959011992449 L506.4978381002098,215.07301186355286 M506.4978381002098,215.07301186355286 L502.7658104167801,214.1101921785236 M502.7658104167801,214.1101921785236 L499.54240759304844,212.6635022360094 M499.54240759304844,212.6635022360094 L497.0150194166753,210.81712650060828 M497.0150194166753,210.81712650060828 L495.3304715362516,208.67850300975087 M495.3304715362516,208.67850300975087 L494.58653410293994,206.37200309644857 M494.58653410293994,206.37200309644857 L494.8262169853389,204.03173753105608 M494.8262169853389,204.03173753105608 L496.03540246948995,201.79365954981594 M496.03540246948995,201.79365954981594 L498.14361528722065,199.78780407695223 M498.14361528722065,199.78780407695223 L501.0282465442637,198.13061619348989 M501.0282465442637,198.13061619348989 L504.5216389057077,196.91828857704485 M504.5216389057077,196.91828857704485 L508.42090051668237,196.22115925629225 M508.42090051668237,196.22115925629225 L512.4995347381439,196.07968557338106 M512.4995347381439,196.07968557338106 L516.5207899757022,196.50205885875738 M516.5207899757022,196.50205885875738 L520.2511312180527,197.46378923895338 M520.2511312180527,197.46378923895338 L523.4739274883893,198.90906945864404 M78.76247619826472,312.0556674432041 L82.00621267318581,310.599856553297 M82.00621267318581,310.599856553297 L85.75625962993149,309.6311168426031 M85.75625962993149,309.6311168426031 L89.79483675966054,309.20566526441644 M89.79483675966054,309.20566526441644 L93.88740984216474,309.34816671382646 M93.88740984216474,309.34816671382646 L97.79640185784979,310.050380119977 M97.79640185784979,310.050380119977 L101.29476834241882,311.2715436366646 M101.29476834241882,311.2715436366646 L104.1793226833206,312.940810289749 M104.1793226833206,312.940810289749 L106.28241121757611,314.9612867364036 M106.28241121757611,314.9612867364036 L107.48172711973916,317.21567621137365 M107.48172711973916,317.21567621137365 L107.70735012929703,319.5730060497785 M107.70735012929703,319.5730060497785 L106.9459947933193,321.8963220380201 M106.9459947933193,321.8963220380201 L105.24167633533477,324.0505387815889 M105.24167633533477,324.0505387815889 L102.69331920225977,325.9103744784422 M102.69331920225977,325.9103744784422 L99.44895116228565,327.36761715369744 M99.44895116228565,327.36761715369744 L95.69719849475132,328.33745810298615 M95.69719849475132,328.33745810298615 L91.65622648303588,328.76343138502216 M91.65622648303588,328.76343138502216 L87.56112377872637,328.62074930253783 M87.56112377872637,328.62074930253783 L83.65003088358515,327.9177034361241 M83.65003088358515,327.9177034361241 L80.15048956724024,326.6952372068432 M80.15048956724024,326.6952372068432 L77.26594979926642,325.02449931725414 M77.26594979926642,325.02449931725414 L75.164061904027,323.0027201583725 M75.164061904027,323.0027201583725 L73.96686343790327,320.7474916208252 M73.96686343790327,320.7474916208252 L73.74377356293417,318.38998774915655 M73.74377356293417,318.38998774915655 L74.50751344558273,316.0671934679852 M74.50751344558273,316.0671934679852 L76.21351579858481,313.91407795819197 M76.21351579858481,313.91407795819197 L78.76247619826472,312.0556674432041 M77.28789164200225,455.35061028376657 L74.76604355243421,453.47532298808306 M74.76604355243421,453.47532298808306 L73.09760765960095,451.303213931339 M73.09760765960095,451.303213931339 L72.37941446873566,448.9606025315929 M72.37941446873566,448.9606025315929 L72.65297343947839,446.5836995994223 M72.65297343947839,446.5836995994223 L73.90219568989602,444.31058662865223 M73.90219568989602,444.31058662865223 L76.05427665656737,442.2733335565025 M76.05427665656737,442.2733335565025 L78.98405827573674,440.5902073029739 M78.98405827573674,440.5902073029739 L82.52126074748628,439.35890517244604 M82.52126074748628,439.35890517244604 L86.46044957201775,438.6508652041612 M86.46044957201775,438.6508652041612 L90.57281076709535,438.50717737189535 M90.57281076709535,438.50717737189535 L94.61963697158774,438.93616108679254 M94.61963697158774,438.93616108679254 L98.3659091850111,439.9129435411545 M98.3659091850111,439.9129435411545 L101.5940718104817,441.38084477518436 M101.5940718104817,441.38084477518436 L104.116545221411,443.2546824236377 M104.116545221411,443.2546824236377 L105.78670103591764,445.4256765001258 M105.78670103591764,445.4256765001258 L106.50730901886016,447.7677596804372 M106.50730901886016,447.7677596804372 L106.2363122178823,450.14484549339824 M106.2363122178823,450.14484549339824 L104.98919671136616,452.4188013254909 M104.98919671136616,452.4188013254909 L102.83830027926655,454.45737337136313 M102.83830027926655,454.45737337136313 L99.90850390550605,456.1419892265471 M99.90850390550605,456.1419892265471 L96.37009077007957,457.3746103311692 M96.37009077007957,457.3746103311692 L92.42877843821549,458.0834998262588 M92.42877843821549,458.0834998262588 L88.31385151625858,458.22736387129936 M88.31385151625858,458.22736387129936 L84.26462098364715,457.7978519402277 M84.26462098364715,457.7978519402277 L80.51665093670317,456.8199545007296 M80.51665093670317,456.8199545007296 L77.28789164200225,455.35061028376657 M721.2375238017353,312.0556674432041 L723.7864842014151,313.91407795819197 M723.7864842014151,313.91407795819197 L725.4924865544172,316.0671934679852 M725.4924865544172,316.0671934679852 L726.2562264370658,318.38998774915655 M726.2562264370658,318.38998774915655 L726.0331365620968,320.7474916208252 M726.0331365620968,320.7474916208252 L724.835938095973,323.0027201583726 M724.835938095973,323.0027201583726 L722.7340502007335,325.02449931725425 M722.7340502007335,325.02449931725425 L719.8495104327596,326.6952372068432 M719.8495104327596,326.6952372068432 L716.349969116415,327.9177034361241 M716.349969116415,327.9177034361241 L712.4388762212736,328.62074930253783 M712.4388762212736,328.62074930253783 L708.3437735169641,328.7634313850222 M708.3437735169641,328.7634313850222 L704.3028015052487,328.33745810298615 M704.3028015052487,328.33745810298615 L700.5510488377142,327.36761715369744 M700.5510488377142,327.36761715369744 L697.3066807977402,325.91037447844224 M697.3066807977402,325.91037447844224 L694.7583236646651,324.05053878158895 M694.7583236646651,324.05053878158895 L693.0540052066806,321.8963220380201 M693.0540052066806,321.8963220380201 L692.2926498707031,319.5730060497785 M692.2926498707031,319.5730060497785 L692.5182728802608,317.21567621137365 M692.5182728802608,317.21567621137365 L693.717588782424,314.96128673640374 M693.717588782424,314.96128673640374 L695.8206773166794,312.9408102897491 M695.8206773166794,312.9408102897491 L698.7052316575812,311.2715436366647 M698.7052316575812,311.2715436366647 L702.2035981421502,310.0503801199771 M702.2035981421502,310.0503801199771 L706.1125901578353,309.3481667138266 M706.1125901578353,309.3481667138266 L710.2051632403393,309.20566526441644 M710.2051632403393,309.20566526441644 L714.2437403700685,309.6311168426031 M714.2437403700685,309.6311168426031 L717.9937873268141,310.59985655329706 M717.9937873268141,310.59985655329706 L721.2375238017353,312.0556674432041 M722.7121083579977,455.3506102837666 L719.4833490632968,456.8199545007296 M719.4833490632968,456.8199545007296 L715.7353790163529,457.7978519402278 M715.7353790163529,457.7978519402278 L711.6861484837414,458.22736387129936 M711.6861484837414,458.22736387129936 L707.5712215617846,458.0834998262589 M707.5712215617846,458.0834998262589 L703.6299092299203,457.37461033116927 M703.6299092299203,457.37461033116927 L700.091496094494,456.1419892265471 M700.091496094494,456.1419892265471 L697.1616997207334,454.45737337136313 M697.1616997207334,454.45737337136313 L695.0108032886337,452.418801325491 M695.0108032886337,452.418801325491 L693.7636877821176,450.14484549339835 M693.7636877821176,450.14484549339835 L693.4926909811397,447.7677596804372 M693.4926909811397,447.7677596804372 L694.2132989640822,445.4256765001259 M694.2132989640822,445.4256765001259 L695.8834547785889,443.2546824236377 M695.8834547785889,443.2546824236377 L698.4059281895181,441.38084477518436 M698.4059281895181,441.38084477518436 L701.6340908149889,439.9129435411545 M701.6340908149889,439.9129435411545 L705.3803630284124,438.93616108679254 M705.3803630284124,438.93616108679254 L709.4271892329045,438.5071773718954 M709.4271892329045,438.5071773718954 L713.5395504279822,438.6508652041612 M713.5395504279822,438.6508652041612 L717.4787392525136,439.3589051724461 M717.4787392525136,439.3589051724461 L721.015941724263,440.5902073029739 M721.015941724263,440.5902073029739 L723.9457233434327,442.2733335565025 M723.9457233434327,442.2733335565025 L726.097804310104,444.31058662865223 M726.097804310104,444.31058662865223 L727.3470265605217,446.5836995994223 M727.3470265605217,446.5836995994223 L727.6205855312644,448.96060253159294 M727.6205855312644,448.96060253159294 L726.902392340399,451.30321393133903 M726.902392340399,451.30321393133903 L725.2339564475658,453.47532298808306 M725.2339564475658,453.47532298808306 L722.7121083579977,455.3506102837666 M248.84344989261203,470.73173966508165 L231.1531072039788,459.0880145017592 M231.1531072039788,459.0880145017592 L216.1447244218674,446.25952749685206 M216.1447244218674,446.25952749685206 L204.05312508340782,432.4512516305634 M204.05312508340782,432.4512516305634 L195.06604977294757,417.8832539056528 M195.06604977294757,417.8832539056528 L189.32140708476027,402.7870877077451 M189.32140708476027,402.7870877077451 L186.90529533709494,387.4020184275722 M186.90529533709494,387.4020184275722 L187.85096101682075,371.9711929154697 M187.85096101682075,371.9711929154697 L192.13853494648023,356.73776696692755 M192.13853494648023,356.73776696692755 L199.69573868047786,341.9410795145348 M199.69573868047786,341.9410795145348 L210.39924202826757,327.8129350918012 M210.39924202826757,327.8129350918012 L224.07690302425723,314.574067326537 M224.07690302425723,314.574067326537 L240.51065542466105,302.4307529959356 M240.51065542466105,302.4307529959356 L259.4401549654313,291.57175577458264 M259.4401549654313,291.57175577458264 L280.56689801076976,282.1654942064201 M280.56689801076976,282.1654942064201 L303.5589324325286,274.3575585346219 M303.5589324325286,274.3575585346219 L328.0560606858719,268.26861952464196 M328.0560606858719,268.26861952464196 L353.6753013381826,263.9926429581768 M353.6753013381826,263.9926429581768 L380.01678128820555,261.59555549149854 M380.01678128820555,261.59555549149854 L406.6697466975762,261.11427741876537 M406.6697466975762,261.11427741876537 L433.21875226145943,262.55623740813667 M433.21875226145943,262.55623740813667 L459.2499178969094,265.8992184067962 M459.2499178969094,265.8992184067962 L484.3571686951352,271.0917016745849 M484.3571686951352,271.0917016745849 L508.14833359440024,278.05358650913325 M508.14833359440024,278.05358650913325 L530.2511110949779,286.67736903607965 M530.2511110949779,286.67736903607965 L550.3187463710656,296.8296820772869 M550.3187463710656,296.8296820772869 L568.0354117393865,308.3532206868326 M568.0354117393865,308.3532206868326 L583.1211053220745,321.0690732895624 M583.1211053220745,321.0690732895624 L595.3361455414929,334.7793440682388 M595.3361455414929,334.7793440682388 L604.4850354690643,349.2701238679538 M604.4850354690643,349.2701238679538 L610.4196991882636,364.31471101950376 M610.4196991882636,364.31471101950376 L613.0420989137663,379.6770808826846 M613.0420989137663,379.6770808826846 L612.3060265582126,395.1155128496295 M612.3060265582126,395.1155128496295 L608.2181820414737,410.38637320033104 M608.2181820414737,410.38637320033104 L600.8382943162442,425.2479709523836 M600.8382943162442,425.2479709523836 L590.2785523610789,439.46442320884694 M590.2785523610789,439.46442320884694 L576.7020649208844,452.8094477443813 M576.7020649208844,452.8094477443813 L560.3205411829013,465.0700977919681 M560.3205411829013,465.0700977919681 L541.391043251238,476.0502370488888 M541.391043251238,476.0502370488888 L520.2120743636206,485.57383515017165 M520.2120743636206,485.57383515017165 L497.11886811047214,493.4879292303973 M497.11886811047214,493.4879292303973 L472.47797866657766,499.66517791659595 M472.47797866657766,499.66517791659595 L446.6814206352501,504.0060664751977 M446.6814206352501,504.0060664751977 L420.1402086687168,506.4405893902491 M420.1402086687168,506.4405893902491 L393.2776467423366,506.92947425220206 M393.2776467423366,506.92947425220206 L366.522350208396,505.46481416733616 M366.522350208396,505.46481416733616 L340.301161490568,502.0702526538728 M340.301161490568,502.0702526538728 L315.03209547219893,496.8005495531186 M315.03209547219893,496.8005495531186 L291.11749068645753,489.7406578884485 M291.11749068645753,489.7406578884485 L268.93740473127957,481.0042397489189 M268.93740473127957,481.0042397489189 L248.84344989261203,470.73173966508165 M275.05144372792427,570.374081950875 L272.5084828699481,568.4850167011616 M272.5084828699481,568.4850167011616 L270.8201808100511,566.2969460542358 M270.8201808100511,566.2969460542358 L270.0845278806678,563.9371213859426 M270.0845278806678,563.9371213859426 L270.3440412913547,561.5427511814821 M270.3440412913547,561.5427511814821 L271.58346355428836,559.2529414735338 M271.58346355428836,559.2529414735338 L273.7305410367007,557.2007221580652 M273.7305410367007,557.2007221580652 L276.66041070686464,555.505231915798 M276.66041070686464,555.505231915798 L280.2027868488116,554.264885250419 M280.2027868488116,554.264885250419 L284.1519286270848,553.5516411803846 M284.1519286270848,553.5516411803846 L288.27846132797976,553.4069012888447 M288.27846132797976,553.4069012888447 L292.3428386851798,553.8390359787327 M292.3428386851798,553.8390359787327 L296.10902919842715,554.8229932660288 M296.10902919842715,554.8229932660288 L299.3583156097516,556.3016738535268 M299.3583156097516,556.3016738535268 L301.9019087360575,558.1892801723654 M301.9019087360575,558.1892801723654 L303.59193627014463,560.376223528046 M303.59193627014463,560.376223528046 L304.33001837794217,562.7355141446005 M304.33001837794217,562.7355141446005 L304.07307556105826,565.1300625265687 M304.07307556105826,565.1300625265687 L302.83579244030017,567.4207311247937 M302.83579244030017,567.4207311247937 L300.6899165765545,569.4742839773564 M300.6899165765545,569.4742839773564 L297.7600415083086,571.1712802686293 M297.7600415083086,571.1712802686293 L294.2164541881074,572.4129604714792 M294.2164541881074,572.4129604714792 L290.2651671344774,573.1270567257677 M290.2651671344774,573.1270567257677 L286.13606253820626,573.2719814982777 M286.13606253820626,573.2719814982777 L282.06925983084915,572.8393127599463 M282.06925983084915,572.8393127599463 L278.3013519246742,571.8542281764699 M278.3013519246742,571.8542281764699 L275.05144372792427,570.374081950875 M524.9485562720758,570.374081950875 L521.6986480753258,571.8542281764699 M521.6986480753258,571.8542281764699 L517.9307401691508,572.8393127599463 M517.9307401691508,572.8393127599463 L513.8639374617937,573.2719814982777 M513.8639374617937,573.2719814982777 L509.73483286552266,573.1270567257677 M509.73483286552266,573.1270567257677 L505.7835458118926,572.4129604714792 M505.7835458118926,572.4129604714792 L502.23995849169137,571.1712802686293 M502.23995849169137,571.1712802686293 L499.3100834234456,569.4742839773564 M499.3100834234456,569.4742839773564 L497.1642075596999,567.4207311247937 M497.1642075596999,567.4207311247937 L495.92692443894174,565.130062526569 M495.92692443894174,565.130062526569 L495.6699816220577,562.7355141446005 M495.6699816220577,562.7355141446005 L496.4080637298554,560.376223528046 M496.4080637298554,560.376223528046 L498.0980912639425,558.1892801723654 M498.0980912639425,558.1892801723654 L500.64168439024843,556.3016738535268 M500.64168439024843,556.3016738535268 L503.89097080157285,554.8229932660288 M503.89097080157285,554.8229932660288 L507.65716131482026,553.8390359787327 M507.65716131482026,553.8390359787327 L511.7215386720202,553.4069012888447 M511.7215386720202,553.4069012888447 L515.8480713729152,553.5516411803846 M515.8480713729152,553.5516411803846 L519.7972131511883,554.264885250419 M519.7972131511883,554.264885250419 L523.3395892931353,555.505231915798 M523.3395892931353,555.505231915798 L526.2694589632993,557.2007221580652 M526.2694589632993,557.2007221580652 L528.4165364457117,559.2529414735338 M528.4165364457117,559.2529414735338 L529.6559587086454,561.5427511814821 M529.6559587086454,561.5427511814821 L529.9154721193322,563.9371213859426 M529.9154721193322,563.9371213859426 L529.1798191899488,566.2969460542358 M529.1798191899488,566.2969460542358 L527.491517130052,568.4850167011616 M527.491517130052,568.4850167011616 L524.9485562720758,570.374081950875 M276.5806261279288,226.67526106491346 L276.52607251161066,198.90906945864396 M523.4193738720712,226.67526106491346 L523.4739274883893,198.90906945864404 M78.90492238755951,339.87264776325577 L78.76247619826472,312.0556674432041 M77.43164828871437,483.2313899488827 L77.28789164200225,455.35061028376657 M721.0950776124405,339.87264776325577 L721.2375238017353,312.0556674432041 M722.5683517112857,483.2313899488827 L722.7121083579977,455.3506102837666 M248.91081771438692,498.6193328012134 L248.84344989261203,470.73173966508165 M275.1073078802354,598.3056513757945 L275.05144372792427,570.374081950875 M524.8926921197647,598.3056513757945 L524.9485562720758,570.374081950875" stroke="black"  stroke-width="4"  fill="red"/></svg>