<svg viewBox="0 0 800 800" xmlns="http://www.w3.org/2000/svg"><path d="M133.70908567253463,558.8855394377953 L133.88774967185657,576.9547819590091 M133.70908567253463,558.8855394377953 L136.79820028511415,563.7416705067269 M136.79820028511415,563.7416705067269 L138.51772699591072,568.8356963331638 M138.51772699591072,568.8356963331638 L138.82219285311783,574.0377101592261 M138.82219285311783,574.0377101592261 L137.7022325251486,579.2147297549611 M137.7022325251486,579.2147297549611 L135.18488353591346,584.2341495562727 M135.18488353591346,584.2341495562727 L131.33320336811187,588.9670725268268 M131.33320336811187,588.9670725268268 L126.24461977011117,593.2917528100284 M126.24461977011117,593.2917528100284 L120.04875550700933,597.096666841817 M120.04875550700933,597.096666841817 L112.90396866663855,600.2835699876609 M112.90396866663855,600.2835699876609 L104.99344533969867,602.7700291686788 M104.99344533969867,602.7700291686788 L96.52040459885126,604.4916577627171 M96.52040459885126,604.4916577627171 L87.7028829185951,605.4038139251699 M87.7028829185951,605.4038139251699 L78.7679426924837,605.4828424902585 M78.7679426924837,605.4828424902585 L69.94569325813416,604.7267147525413 M69.94569325813416,604.7267147525413 L61.46334721168034,603.1550380209402 M61.46334721168034,603.1550380209402 L53.539217206180695,600.8085320530133 M53.539217206180695,600.8085320530133 L46.37690316575754,597.7479926370502 M46.37690316575754,597.7479926370502 L40.16008158955111,594.0526017182057 M40.16008158955111,594.0526017182057 L35.0477359491324,589.8178255217598 M35.0477359491324,589.8178255217598 L31.170091634729317,585.1528748166222 M31.170091634729317,585.1528748166222 L28.625367284525623,580.1778072227489 M28.625367284525623,580.1778072227489 L27.477265751836853,575.0204334400572 M27.477265751836853,575.0204334400572 L27.75358728494598,569.8129394326603 M27.75358728494598,569.8129394326603 L29.44568753031814,564.6884595893899 M29.44568753031814,564.6884595893899 L32.50878382000428,559.7777376774327 M32.50878382000428,559.7777376774327 L36.863255692638404,555.2058079379005 M36.863255692638404,555.2058079379005 L42.396875862808656,551.088809026403 M42.396875862808656,551.088809026403 L48.96771523177904,547.5311367111856 M48.96771523177904,547.5311367111856 L56.40786835703011,544.6228281279356 M56.40786835703011,544.6228281279356 L64.52760228504894,542.4374309446395 M64.52760228504894,542.4374309446395 L73.1203445990921,541.0300925361421 M73.1203445990921,541.0300925361421 L81.96765931176441,540.4363430857261 M81.96765931176441,540.4363430857261 L90.84486059230301,540.6711344124633 M90.84486059230301,540.6711344124633 L99.52646104242456,541.7285645696551 M99.52646104242456,541.7285645696551 L107.79188206948936,543.5819581985396 M107.79188206948936,543.5819581985396 L107.98781925978659,561.6412142585393 M107.98781925978659,561.6412142585393 L99.72794350945003,559.7866096063057 M99.72794350945003,559.7866096063057 L91.05217947166182,558.728488362393 M91.05217947166182,558.728488362393 L82.18095843512464,558.4935435720073 M82.18095843512464,558.4935435720073 L73.33961697221662,559.0876810966969 M73.33961697221662,559.0876810966969 L64.75269027795241,560.4959392009447 M64.75269027795241,560.4959392009447 L56.63846743760888,562.6827641517988 M56.63846743760888,562.6827641517988 L49.203381381755435,565.5929720611698 M49.203381381755435,565.5929720611698 L42.63703627856597,569.1529666401842 M42.63703627856597,569.1529666401842 L37.10722282870063,573.2726513467683 M37.10722282870063,573.2726513467683 L32.75577225656377,577.8475616918622 M32.75577225656377,577.8475616918622 L29.694833432600205,582.7614827691871 M29.694833432600205,582.7614827691871 L28.003969946759184,587.8892984815961 M28.003969946759184,587.8892984815961 L27.727930809026873,593.1001797274827 M27.727930809026873,593.1001797274827 L28.875350996231532,598.2609054948537 M28.875350996231532,598.2609054948537 L31.418445571469192,603.2392040835662 M31.418445571469192,603.2392040835662 L35.29355151186115,607.9071821502753 M35.29355151186115,607.9071821502753 L40.40251376931275,612.144704672304 M40.40251376931275,612.144704672304 L46.61519274891606,615.8424906617106 M46.61519274891606,615.8424906617106 L53.77271088098604,618.9050126597691 M53.77271088098604,618.9050126597691 L61.69151497174852,621.2530380375096 M61.69151497174852,621.2530380375096 L70.16814257210308,622.8257321557957 M70.16814257210308,622.8257321557957 L78.98442909216129,623.582349267053 M78.98442909216129,623.582349267053 L87.91331655363814,623.5032695565312 M87.91331655363814,623.5032695565312 L96.72485259957466,622.5905230231414 M96.72485259957466,622.5905230231414 L105.19213001308964,620.8677799217504 M105.19213001308964,620.8677799217504 L113.09726150027205,618.3797105961106 M113.09726150027205,618.3797105961106 L120.23716712151423,615.1907428251665 M120.23716712151423,615.1907428251665 L126.42878623800306,611.3833624716272 M126.42878623800306,611.3833624716272 L131.51386921880248,607.0558772126 M131.51386921880248,607.0558772126 L135.3628820899654,602.3198823536409 M135.3628820899654,602.3198823536409 L137.87846389898186,597.2972022847473 M137.87846389898186,597.2972022847473 L138.9976005423997,592.1168174358057 M138.9976005423997,592.1168174358057 L138.69327341789972,586.9114194298693 M138.69327341789972,586.9114194298693 L136.9748421547905,581.8140770724584 M136.9748421547905,581.8140770724584 L133.88774967185657,576.9547819590091 M100.57580540220386,596.2088353429717 L133.88774967185657,576.9547819590091 M100.37435688596861,578.1270696115591 L133.70908567253463,558.8855394377953 M100.37435688596861,578.1270696115591 L100.57580540220386,596.2088353429717 M73.97579789173665,583.0477821849304 L82.79167991912698,588.2761730153753 M82.79167991912698,588.2761730153753 L91.84952634732679,583.0477871336889 M100.37435688596861,578.1270696115591 L98.12992252222165,580.0963341363938 M98.12992252222165,580.0963341363938 L95.24745070206956,581.76024177893 M95.24745070206956,581.76024177893 L91.84952634732679,583.0477871336889 M107.79188206948936,543.5819581985396 L74.45808909036384,562.7802094433409 M65.93351488761914,567.6898492614598 L68.18055392265586,565.7241675909983 M68.18055392265586,565.7241675909983 L71.06293522052812,564.0641719378058 M71.06293522052812,564.0641719378058 L74.45808909036384,562.7802094433409 M65.93351488761914,567.6898492614598 L56.875948417870006,572.9064604302406 M56.875948417870006,572.9064604302406 L65.67871771005832,578.1270745567459 M73.97579789173665,583.0477821849304 L70.63746566648393,581.7602360980951 M70.63746566648393,581.7602360980951 L67.83201467278644,580.0963368845138 M67.83201467278644,580.0963368845138 L65.67871771005832,578.1270745567459 M107.98781925978659,561.6412142585393 L74.67680890361544,580.8519897485531 M74.45808909036384,562.7802094433409 L74.67680890361544,580.8519897485531 M74.19516922431751,601.1327446258703 L83.00517192803466,606.3645294136386 M83.00517192803466,606.3645294136386 L92.05681185265928,601.1327495778426 M100.57580540220386,596.2088353429717 L98.33291743586676,598.1793794763859 M98.33291743586676,598.1793794763859 L95.45241925925734,599.8443680096117 M95.45241925925734,599.8443680096117 L92.05681185265928,601.1327495778426 M66.15807117072245,585.7648265642217 L68.40356034565264,583.7978651930664 M68.40356034565264,583.7978651930664 L71.28396818334778,582.1367885486068 M71.28396818334778,582.1367885486068 L74.67680890361544,580.8519897485531 M66.15807117072245,585.7648265642217 L57.10671063724146,590.984831998721 M57.10671063724146,590.984831998721 L65.90361820310744,596.2088402913724 M65.90361820310744,596.2088402913724 L68.05549194233441,598.1793822262914 M68.05549194233441,598.1793822262914 L70.85907339098753,599.844362325087 M70.85907339098753,599.844362325087 L74.19516922431751,601.1327446258703 M91.84952634732679,583.0477871336889 L92.05681185265928,601.1327495778426 M83.00517192803466,606.3645294136386 L82.79167991912698,588.2761730153753 M73.97579789173665,583.0477821849304 L74.19516922431751,601.1327446258703 M65.67871771005832,578.1270745567459 L65.90361820310744,596.2088402913724 M57.10671063724146,590.984831998721 L56.875948417870006,572.9064604302406 M65.93351488761914,567.6898492614598 L66.15807117072245,585.7648265642217" stroke="black"  stroke-width="4"  fill="red"/>
<path d="M663.5009255748821,194.23034178764732 L663.6749497931451,176.41765073294704 M638.2731064035852,208.7279743585983 L638.4307421582287,190.90530070640386 M663.5009255748821,194.23034178764732 L638.2731064035852,208.7279743585983 M663.6749497931451,176.41765073294704 L638.4307421582287,190.90530070640386 M704.8211084968907,217.4417978521745 L663.5009255748821,194.23034178764732 M705.0226103000971,199.61313416261126 L663.6749497931451,176.41765073294704 M704.8211084968907,217.4417978521745 L705.0226103000971,199.61313416261126 M638.2731064035852,208.7279743585983 L679.5943372118306,231.99031602419782 M679.7794526194173,214.15166818630652 L679.5943372118306,231.99031602419782 M638.4307421582287,190.90530070640386 L679.7794526194173,214.15166818630652 M704.8211084968907,217.4417978521745 L679.5943372118306,231.99031602419782 M657.7121901325258,211.0505418680159 L659.0940942801694,211.6611025425406 M659.0940942801694,211.6611025425406 L660.689163687992,212.06744119845447 M660.689163687992,212.06744119845447 L662.4046048324299,212.24592101992852 M662.4046048324299,212.24592101992852 L664.1406613026222,212.18613593489474 M664.1406613026222,212.18613593489474 L665.7963330708556,211.89157786731133 M665.7963330708556,211.89157786731133 L667.2753418953864,211.3793828938148 M667.2753418953864,211.3793828938148 L668.4916739634689,210.6793755387937 M668.4916739634689,210.6793755387937 L669.3746554448551,209.83228170497227 M669.3746554448551,209.83228170497227 L669.8729940376877,208.8873876069614 M669.8729940376877,208.8873876069614 L669.957825083646,207.89962615928278 M669.957825083646,207.89962615928278 L669.6242899769136,206.926417957983 M669.6242899769136,206.926417957983 L668.8918837502497,206.0242896602205 M668.8918837502497,206.0242896602205 L667.803201395461,205.24564940655446 M667.803201395461,205.24564940655446 L666.4215624798121,204.63567788530574 M666.4215624798121,204.63567788530574 L664.8272113043363,204.22979447316385 M664.8272113043363,204.22979447316385 L663.1127743693837,204.05153032976824 M663.1127743693837,204.05153032976824 L661.377780511011,204.11124348417826 M661.377780511011,204.11124348417826 L659.7229794993757,204.40545467121328 M659.7229794993757,204.40545467121328 L658.2444569183349,204.9171110999073 M658.2444569183349,204.9171110999073 L657.0281127238961,205.61651024895798 M657.0281127238961,205.61651024895798 L656.1446235242058,206.46306554156484 M656.1446235242058,206.46306554156484 L655.6454003978731,207.4076155252822 M655.6454003978731,207.4076155252822 L655.5595038168137,208.39530227886416 M655.5595038168137,208.39530227886416 L655.8920433143226,209.3687261523183 M655.8920433143226,209.3687261523183 L656.6237494619209,210.27130970127516 M656.6237494619209,210.27130970127516 L657.7121901325258,211.0505418680159 M705.0226103000971,199.61313416261126 L679.7794526194173,214.15166818630652 M657.8826306196138,193.2262709063711 L656.7934645494031,192.44757458479242 M656.7934645494031,192.44757458479242 L656.0612659613435,191.5456117797341 M656.0612659613435,191.5456117797341 L655.7284955022324,190.57285746043482 M655.7284955022324,190.57285746043482 L655.8144359301054,189.5858501674379 M655.8144359301054,189.5858501674379 L656.3139750264479,188.6419500595672 M656.3139750264479,188.6419500595672 L657.1980338748667,187.7959772949165 M657.1980338748667,187.7959772949165 L658.4151682185757,187.09705946692668 M658.4151682185757,187.09705946692668 L659.8946555358818,186.58575518690185 M659.8946555358818,186.58575518690185 L661.5505398480682,186.29174650311015 M661.5505398480682,186.29174650311015 L663.2866727183746,186.23207444984087 M663.2866727183746,186.23207444984087 L665.0022382947855,186.410215893352 M665.0022382947855,186.410215893352 L666.5976422760916,186.81581994614868 M666.5976422760916,186.81581994614868 L667.9801970384369,187.4253716700289 M667.9801970384369,187.4253716700289 L669.069605104432,188.20347609791742 M669.069605104432,188.20347609791742 L669.8025046859946,189.10498366599137 M669.8025046859946,189.10498366599137 L670.1362720604495,190.07752231986814 M670.1362720604495,190.07752231986814 L670.0513985679224,191.06460430372147 M670.0513985679224,191.06460430372147 L669.5527451741291,192.00884851605358 M669.5527451741291,192.00884851605358 L668.6691947185884,192.85535980510906 M668.6691947185884,192.85535980510906 L667.452072525158,193.55488582008502 M667.452072525158,193.55488582008502 L665.9720983321515,194.06672862810254 M665.9720983321515,194.06672862810254 L664.3153421214963,194.36108418070648 M664.3153421214963,194.36108418070648 L662.5781452448923,194.4208281632632 M662.5781452448923,194.4208281632632 L660.8615741359097,194.2424710484055 M660.8615741359097,194.2424710484055 L659.2654509720082,193.83641176604664 M659.2654509720082,193.83641176604664 L657.8826306196138,193.2262709063711 M657.7121901325258,211.0505418680159 L657.8826306196138,193.2262709063711" stroke="black"  stroke-width="4"  fill="red"/>
<path d="M772.2761709565373,255.3344233898523 L730.7198470525848,231.9903160241979 M730.7198470525848,231.9903160241979 L730.9386198070056,214.15166818630652 M772.5227342481633,237.47979910425684 L730.9386198070056,214.15166818630652 M772.2761709565373,255.3344233898523 L772.5227342481633,237.47979910425684 M705.493813382531,246.57077386289976 L730.7198470525848,231.9903160241979 M705.493813382531,246.57077386289976 L747.0514509768639,269.96620390274325 M747.0514509768639,269.96620390274325 L772.2761709565373,255.3344233898523 M742.6620138031374,258.8431178830169 L744.0528258007239,259.45808861429526 M744.0528258007239,259.45808861429526 L745.6562562685722,259.8673614239808 M745.6562562685722,259.8673614239808 L747.3790275454451,260.04713006905615 M747.3790275454451,260.04713006905615 L749.1209539931713,259.98691187217275 M749.1209539931713,259.98691187217275 L750.780701136955,259.6902281802742 M750.780701136955,259.6902281802742 L752.2617462325554,259.1743347332857 M752.2617462325554,259.1743347332857 L753.4779596142628,258.46927297550064 M753.4779596142628,258.46927297550064 L754.3586746916658,257.61606305976284 M754.3586746916658,257.61606305976284 L754.8527290023308,256.66434582378815 M754.8527290023308,256.66434582378815 L754.9315149172894,255.66945506442278 M754.9315149172894,255.66945506442278 L754.5905185426366,254.68922174034296 M754.5905185426366,254.68922174034296 L753.849671510267,253.78058187454357 M753.849671510267,253.78058187454357 L752.7520570757197,252.99632035518408 M752.7520570757197,252.99632035518408 L751.3615209933444,252.3819479612522 M751.3615209933444,252.3819479612522 L749.7588168804823,251.9731353337788 M749.7588168804823,251.9731353337788 L748.037058454217,251.7935847064369 M748.037058454217,251.7935847064369 L746.2961968584323,251.85372739940652 M746.2961968584323,251.85372739940652 L744.6373294852922,252.15006324082358 M744.6373294852922,252.15006324082358 L743.1567706680023,252.66541230092784 M743.1567706680023,252.66541230092784 L741.9405411475284,253.36985925498362 M741.9405411475284,253.36985925498362 L741.059311211332,254.2225247874644 M741.059311211332,254.2225247874644 L740.5643587945444,255.1738913832349 M740.5643587945444,255.1738913832349 L740.4845041370625,256.16870943122194 M740.4845041370625,256.16870943122194 L740.8244991070405,257.1491607670465 M740.8244991070405,257.1491607670465 L741.5646439443519,258.0582608225605 M741.5646439443519,258.0582608225605 L742.6620138031374,258.8431178830169 M705.69620119907,228.72214099300624 L730.9386198070056,214.15166818630652 M705.493813382531,246.57077386289976 L705.69620119907,228.72214099300624 M705.69620119907,228.72214099300624 L747.2816319305759,252.10159330995378 M747.2816319305759,252.10159330995378 L772.5227342481633,237.47979910425684 M742.889106890367,240.98609695239352 L741.7909997834267,240.20177588966015 M741.7909997834267,240.20177588966015 L741.050351292557,239.29329675666511 M741.050351292557,239.29329675666511 L740.7101154362988,238.313515168605 M740.7101154362988,238.313515168605 L740.7900058785119,237.3193767796302 M740.7900058785119,237.3193767796302 L741.2852685377793,236.3686602485735 M741.2852685377793,236.3686602485735 L742.1670650563292,235.5165774149801 M742.1670650563292,235.5165774149801 L743.3840844994745,234.81261192377744 M743.3840844994745,234.81261192377744 L744.8656106786887,234.2976151164017 M744.8656106786887,234.2976151164017 L746.5255666760818,234.0014818391419 M746.5255666760818,234.0014818391419 L748.2675750016247,233.94138025854176 M748.2675750016247,233.94138025854176 L749.9904717291845,234.12080814964577 M749.9904717291845,234.12080814964577 L751.5942396914147,234.52934133512804 M751.5942396914147,234.52934133512804 L752.9857034056506,235.14329380877038 M752.9857034056506,235.14329380877038 L754.0840553991018,235.9270193438472 M754.0840553991018,235.9270193438472 L754.8254070035739,236.83503829822305 M754.8254070035739,236.83503829822305 L755.1666455820448,237.81460187979476 M755.1666455820448,237.81460187979476 L755.087825295419,238.80881297931353 M755.087825295419,238.80881297931353 L754.5934619317356,239.75988014120148 M754.5934619317356,239.75988014120148 L753.7121809607538,240.6125073449266 M753.7121809607538,240.6125073449266 L752.4951776883274,241.31708762503527 M752.4951776883274,241.31708762503527 L751.0131645986132,241.8326288061698 M751.0131645986132,241.8326288061698 L749.352327677416,242.12910992644282 M749.352327677416,242.12910992644282 L747.6092530945712,242.18928700821752 M747.6092530945712,242.18928700821752 L745.8853421762037,242.00964110463653 M745.8853421762037,242.00964110463653 L744.2808468926105,241.6006477480374 M744.2808468926105,241.6006477480374 L742.889106890367,240.98609695239352 M747.0514509768639,269.96620390274325 L747.2816319305759,252.10159330995378 M742.6620138031374,258.8431178830169 L742.889106890367,240.98609695239352" stroke="black"  stroke-width="4"  fill="red"/>
<path d="M704.8211084968907,217.4417978521745 L74.67680890361544,580.8519897485531 M74.45808909036384,562.7802094433409 L74.67680890361544,580.8519897485531 M705.0226103000971,199.61313416261126 L74.45808909036384,562.7802094433409 M704.8211084968907,217.4417978521745 L705.0226103000971,199.61313416261126 M730.7198470525848,231.9903160241979 L704.8211084968907,217.4417978521745 M100.57580540220386,596.2088353429717 L102.2040960245576,593.7662610786132 M102.2040960245576,593.7662610786132 L102.84566145561325,591.1790137453906 M102.84566145561325,591.1790137453906 L102.46742678209534,588.5826060841165 M102.46742678209534,588.5826060841165 L101.08980164424253,586.1128160644013 M101.08980164424253,586.1128160644013 L98.78530519277308,583.8987082706717 M98.78530519277308,583.8987082706717 L95.67479937861316,582.0558499032983 M95.67479937861316,582.0558499032983 L91.92107063106289,580.6803477097285 M91.92107063106289,580.6803477097285 L87.72030996502917,579.8438876197056 M87.72030996502917,579.8438876197056 L83.2919363870476,579.5900218185084 M83.2919363870476,579.5900218185084 L78.86708228942086,579.9320021376457 M78.86708228942086,579.9320021376457 L74.67680890361544,580.8519897485531 M100.57580540220386,596.2088353429717 L730.7198470525848,231.9903160241979 M100.37435688596861,578.1270696115591 L102.00378475329273,575.6860820110229 M102.00378475329273,575.6860820110229 L102.6458219819475,573.100515963896 M102.6458219819475,573.100515963896 L102.26736967684121,570.5057962080605 M102.26736967684121,570.5057962080605 L100.88884966509056,568.0376124003457 M100.88884966509056,568.0376124003457 L98.58282852740717,565.8249450510004 M98.58282852740717,565.8249450510004 L95.47024836170328,563.9832859725282 M95.47024836170328,563.9832859725282 L91.71400416682098,562.608679142716 M91.71400416682098,562.608679142716 L87.51041826570543,561.7727636262373 M87.51041826570543,561.7727636262373 L83.07905693480251,561.5190631169276 M83.07905693480251,561.5190631169276 L78.65120813039948,561.8608207743545 M78.65120813039948,561.8608207743545 L74.45808909036384,562.7802094433409 M100.37435688596861,578.1270696115591 L100.57580540220386,596.2088353429717 M730.9386198070056,214.15166818630652 L705.0226103000971,199.61313416261126 M100.37435688596861,578.1270696115591 L730.9386198070056,214.15166818630652 M730.7198470525848,231.9903160241979 L730.9386198070056,214.15166818630652 M66.15807117072245,585.7648265642217 L57.10671063724146,590.984831998721 M57.10671063724146,590.984831998721 L56.875948417870006,572.9064604302406 M65.93351488761914,567.6898492614598 L56.875948417870006,572.9064604302406 M65.93351488761914,567.6898492614598 L66.15807117072245,585.7648265642217 M65.90361820310744,596.2088402913724 L64.35066192643905,593.6719569860849 M64.35066192643905,593.6719569860849 L63.868017087651936,590.9848323649886 M63.868017087651936,590.9848323649886 L64.48222086271988,588.298763003661 M64.48222086271988,588.298763003661 L66.15807117072245,585.7648265642217 M57.10671063724146,590.984831998721 L65.90361820310744,596.2088402913724 M65.67871771005832,578.1270745567459 L65.90361820310744,596.2088402913724 M56.875948417870006,572.9064604302406 L65.67871771005832,578.1270745567459 M65.67871771005832,578.1270745567459 L64.12475305785682,575.5918391890311 M64.12475305785682,575.5918391890311 L63.64182640745656,572.9064607962702 M63.64182640745656,572.9064607962702 L64.2564899509091,570.2221376923883 M64.2564899509091,570.2221376923883 L65.93351488761914,567.6898492614598 M83.00517192803466,606.3645294136386 L92.05681185265928,601.1327495778426 M74.19516922431751,601.1327446258703 L83.00517192803466,606.3645294136386 M92.05681185265928,601.1327495778426 L87.69915780497183,602.0789088793 M87.69915780497183,602.0789088793 L83.09671986110999,602.4003605017906 M83.09671986110999,602.4003605017906 L78.50913402295498,602.0789140153904 M78.50913402295498,602.0789140153904 L74.19516922431751,601.1327446258703 M91.84952634732679,583.0477871336889 L92.05681185265928,601.1327495778426 M82.79167991912698,588.2761730153753 L91.84952634732679,583.0477871336889 M83.00517192803466,606.3645294136386 L82.79167991912698,588.2761730153753 M73.97579789173665,583.0477821849304 L82.79167991912698,588.2761730153753 M73.97579789173665,583.0477821849304 L74.19516922431751,601.1327446258703 M91.84952634732679,583.0477871336889 L87.48890917448034,583.9933324429454 M87.48890917448034,583.9933324429454 L82.88335181329376,584.3145754856622 M82.88335181329376,584.3145754856622 L78.29266666178569,583.9933375757031 M78.29266666178569,583.9933375757031 L73.97579789173665,583.0477821849304" stroke="black"  stroke-width="4"  fill="red"/></svg>